# Blender 5.1.0
# www.blender.org
mtllib spot_light.mtl
o spot_filterplate
v -0.015019 -0.001042 -0.002999
v -0.015019 -0.001042 -0.001027
v -0.015019 -0.003042 -0.002999
v -0.015019 -0.003042 -0.001027
v -0.018000 -0.001042 -0.001027
v -0.018000 -0.003042 -0.001027
v -0.018000 -0.001042 -0.002999
v -0.018000 -0.003042 -0.002999
v -0.018000 -0.001042 0.001193
v -0.018000 -0.000042 0.015000
v -0.018000 -0.000042 -0.015000
v -0.018000 -0.001042 -0.015000
v -0.018000 -0.003042 0.001193
v -0.018000 -0.003042 0.002993
v -0.018000 -0.001042 0.002993
v -0.018000 -0.001042 0.015000
v -0.015029 -0.001042 0.001193
v -0.010147 -0.001042 -0.002835
v -0.008443 -0.001042 -0.006384
v -0.005176 -0.001042 -0.009202
v -0.001063 -0.001042 -0.010531
v 0.018000 -0.001042 -0.015000
v 0.002835 -0.001042 -0.010147
v 0.006384 -0.001042 -0.008443
v 0.009202 -0.001042 -0.005176
v 0.015005 -0.001042 -0.003006
v 0.010531 -0.001042 -0.001063
v 0.015005 -0.001042 -0.001206
v 0.015042 -0.001042 0.001200
v 0.010147 -0.001042 0.002835
v 0.015042 -0.001042 0.003000
v 0.008443 -0.001042 0.006384
v 0.018000 -0.001042 0.015000
v 0.005176 -0.001042 0.009202
v 0.001063 -0.001042 0.010531
v -0.002835 -0.001042 0.010147
v -0.006384 -0.001042 0.008443
v -0.009202 -0.001042 0.005176
v -0.015029 -0.001042 0.002993
v -0.010531 -0.001042 0.001063
v 0.018000 -0.001042 -0.003006
v 0.018000 -0.001042 -0.001206
v 0.018000 -0.001042 0.001200
v 0.018000 -0.001042 0.003000
v 0.018000 -0.003042 0.003000
v 0.015042 -0.003042 0.003000
v 0.015042 -0.003042 0.001200
v 0.018000 -0.003042 0.001200
v -0.010457 -0.000042 -0.001456
v 0.018000 -0.000042 0.015000
v -0.001456 -0.000042 0.010457
v 0.018000 -0.000042 -0.015000
v 0.010457 -0.000042 0.001456
v 0.001456 -0.000042 -0.010457
v -0.008842 -0.000042 -0.005876
v -0.005381 -0.000042 -0.009083
v -0.002068 -0.000042 -0.010331
v 0.005876 -0.000042 -0.008842
v 0.009083 -0.000042 -0.005381
v 0.010331 -0.000042 -0.002068
v 0.008842 -0.000042 0.005876
v 0.005381 -0.000042 0.009083
v 0.002068 -0.000042 0.010331
v -0.005876 -0.000042 0.008842
v -0.009083 -0.000042 0.005381
v -0.010331 -0.000042 0.002068
v -0.015029 -0.003042 0.001193
v -0.015029 -0.003042 0.002993
v 0.015005 -0.003042 -0.003006
v 0.018000 -0.003042 -0.003006
v 0.015005 -0.003042 -0.001206
v 0.018000 -0.003042 -0.001206
v -0.012766 -0.031066 -0.000898
v -0.010345 -0.030027 -0.002123
v -0.011345 -0.031048 -0.005871
v -0.008876 -0.030043 -0.005702
v -0.006388 -0.030039 -0.008395
v -0.007337 -0.031056 -0.010491
v -0.003677 -0.030040 -0.009858
v -0.002729 -0.031053 -0.012444
v 0.000314 -0.030037 -0.010565
v 0.004830 -0.031051 -0.011790
v 0.003799 -0.030037 -0.009808
v 0.008869 -0.031043 -0.009195
v 0.006986 -0.030028 -0.007922
v 0.009376 -0.030043 -0.004836
v 0.012533 -0.031051 -0.002109
v 0.010379 -0.030046 -0.001802
v 0.010345 -0.030027 0.002123
v 0.012576 -0.031066 0.002361
v 0.008876 -0.030043 0.005702
v 0.010927 -0.031060 0.006449
v 0.006388 -0.030039 0.008395
v 0.009085 -0.031062 0.008967
v 0.004874 -0.031065 0.011788
v 0.003677 -0.030040 0.009858
v 0.000411 -0.031064 0.012720
v -0.000314 -0.030037 0.010565
v -0.003112 -0.031065 0.012312
v -0.003630 -0.030043 0.009881
v -0.007263 -0.031069 0.010528
v -0.006986 -0.030028 0.007922
v -0.010428 -0.031065 0.007246
v -0.009376 -0.030043 0.004836
v -0.012045 -0.031064 0.004109
v -0.010372 -0.030043 0.001797
v 0.001122 -0.031042 -0.012700
v 0.011487 -0.031042 -0.005531
v 0.010460 -0.001042 0.001545
v 0.008744 -0.001042 0.005953
v 0.006131 -0.001042 0.008555
v 0.003074 -0.001042 0.010089
v -0.000184 -0.001042 0.010544
v -0.004345 -0.001042 0.009637
v -0.008333 -0.001042 0.006576
v -0.010270 -0.001042 0.002411
v -0.010460 -0.001042 -0.001545
v -0.008744 -0.001042 -0.005953
v -0.006131 -0.001042 -0.008555
v -0.003074 -0.001042 -0.010089
v 0.000184 -0.001042 -0.010544
v 0.003382 -0.001042 -0.009966
v 0.006574 -0.001042 -0.008301
v 0.009989 -0.001042 -0.003730
v -0.005134 -0.001042 -0.016544
v -0.004812 0.000958 -0.016867
v -0.005295 -0.004726 -0.016300
v -0.004438 -0.004975 -0.016840
v -0.007621 -0.009039 -0.010616
v -0.006096 -0.007362 -0.013619
v -0.007491 -0.007282 -0.012258
v -0.009096 -0.008536 -0.009294
v -0.003374 -0.009040 -0.012604
v -0.001534 -0.005905 -0.016534
v 0.000980 -0.009047 -0.013029
v 0.005255 -0.009041 -0.011943
v 0.006378 -0.007560 -0.013246
v -0.001533 -0.005097 -0.016960
v 0.001652 -0.005623 -0.016740
v 0.004709 0.000958 -0.016890
v 0.004365 -0.005301 -0.016644
v 0.004375 -0.004482 -0.016958
v 0.005280 -0.004670 -0.016319
v -0.009192 -0.001042 -0.009192
v 0.005099 -0.001042 -0.016592
v 0.007568 -0.007312 -0.012132
v 0.008824 -0.008815 -0.009601
v 0.009192 -0.001042 -0.009192
v -0.005000 -0.001042 -0.015000
v -0.010720 -0.001042 -0.007449
v -0.012001 -0.001042 -0.004997
v -0.012685 -0.001042 -0.002988
v -0.018045 -0.001042 -0.004999
v -0.018045 -0.001042 -0.002997
v -0.012958 -0.001042 -0.001045
v -0.012964 -0.001042 0.000971
v -0.012694 -0.001042 0.002974
v -0.018045 -0.001042 -0.001027
v -0.018045 -0.001042 0.000992
v -0.018045 -0.001042 0.002993
v -0.018045 -0.001042 0.005000
v -0.012000 -0.001042 0.005000
v -0.010762 -0.001042 0.007379
v -0.009192 -0.001042 0.009192
v -0.004870 -0.001042 0.016866
v 0.004831 -0.001042 0.016868
v 0.008740 -0.001042 0.009624
v 0.010429 -0.001042 0.007836
v 0.012007 -0.001042 0.005029
v 0.012681 -0.001042 0.003010
v 0.012958 -0.001042 0.001050
v 0.012964 -0.001042 -0.000960
v 0.012695 -0.001042 -0.002969
v 0.018111 -0.001042 0.005000
v 0.020017 -0.001042 0.005000
v 0.018111 -0.001042 0.002992
v 0.018111 -0.001042 0.001023
v 0.018111 -0.001042 -0.001016
v 0.018111 -0.001042 -0.002971
v 0.018111 -0.001042 -0.004976
v 0.012019 -0.001042 -0.004954
v 0.010934 -0.001042 -0.007122
v 0.005000 -0.001042 -0.015000
v 0.005059 -0.004581 0.016571
v 0.007890 -0.009014 0.010353
v 0.006219 -0.007585 0.013275
v 0.006924 -0.006998 0.013006
v 0.008726 -0.008303 0.009637
v 0.003633 -0.009044 0.012637
v 0.001114 -0.005761 0.016702
v -0.002162 -0.009049 0.012884
v -0.004265 -0.005371 0.016652
v -0.006377 -0.007559 0.013247
v -0.005754 -0.009040 0.011684
v -0.003927 -0.004782 0.016967
v -0.005107 -0.004596 0.016547
v 0.004221 -0.005000 0.016892
v -0.007565 -0.007309 0.012137
v -0.008824 -0.008815 0.009600
v 0.010071 -0.028077 0.010445
v 0.010496 -0.028064 0.009886
v 0.010338 -0.013042 0.010322
v 0.008752 -0.027033 0.010504
v 0.008739 -0.013042 0.010503
v 0.012951 -0.013042 0.001595
v 0.013652 -0.013042 -0.001749
v 0.012812 -0.013042 0.005191
v 0.011631 -0.013042 0.005987
v 0.010458 -0.013042 0.008050
v 0.005609 -0.013042 0.011865
v 0.005719 -0.013042 0.012461
v 0.001923 -0.013042 0.013776
v -0.000422 -0.013042 0.013106
v -0.001913 -0.013042 0.013758
v -0.005445 -0.013042 0.011866
v -0.005885 -0.013042 0.012357
v -0.008753 -0.013042 0.010505
v -0.010439 -0.013042 0.008189
v -0.010316 -0.013042 0.010337
v -0.011142 -0.013042 0.006867
v -0.011945 -0.013042 0.006703
v -0.012820 -0.013042 0.002448
v -0.013652 -0.013042 0.001749
v -0.012951 -0.013042 -0.001586
v -0.012812 -0.013042 -0.005191
v -0.011669 -0.013042 -0.005885
v -0.010500 -0.013042 -0.008718
v -0.008899 -0.013042 -0.009527
v -0.010338 -0.013042 -0.010322
v -0.008718 -0.013042 -0.010500
v -0.006703 -0.013042 -0.011945
v -0.005558 -0.013042 -0.011806
v -0.001749 -0.013042 -0.013652
v -0.001522 -0.013042 -0.012968
v 0.004187 -0.013042 -0.012473
v 0.005191 -0.013042 -0.012812
v 0.007849 -0.013042 -0.010486
v 0.010321 -0.013042 -0.010332
v 0.010696 -0.013042 -0.007635
v 0.011945 -0.013042 -0.006703
v 0.012821 -0.013042 -0.002442
v 0.010453 -0.028077 -0.010038
v 0.009884 -0.028078 -0.010495
v 0.010500 -0.027011 -0.008719
v -0.010065 -0.028083 -0.010446
v -0.010496 -0.028064 -0.009887
v -0.008719 -0.027011 -0.010500
v -0.010503 -0.028062 0.009811
v -0.010132 -0.028080 0.010411
v -0.010506 -0.027030 0.008758
v -0.008719 -0.027011 0.010500
v 0.008734 -0.027017 -0.010524
v 0.005599 -0.027004 -0.012491
v 0.001681 -0.027016 -0.013593
v -0.002542 -0.027005 -0.013459
v -0.006506 -0.027015 -0.012053
v -0.010506 -0.027030 -0.008758
v -0.012930 -0.027000 -0.004680
v -0.013690 -0.027012 0.000420
v -0.012757 -0.027017 0.005070
v 0.001932 -0.027550 0.013933
v 0.005205 -0.026993 0.012704
v 0.010500 -0.027010 0.008719
v 0.012017 -0.026993 0.006555
v 0.013431 -0.027015 0.002688
v 0.013617 -0.027016 -0.001474
v 0.012331 -0.027003 -0.006032
v -0.005999 -0.026993 0.012349
v -0.001923 -0.027380 0.013776
v -0.020000 -0.001042 0.003000
v -0.020000 -0.001042 0.001000
v -0.020000 -0.001042 -0.005000
v -0.018045 0.000958 -0.004999
v -0.020000 0.000958 -0.004999
v -0.018045 0.000958 0.005000
v -0.020000 0.000958 0.005000
v -0.020000 -0.001042 -0.003000
v -0.020004 -0.001042 -0.001020
v 0.020004 -0.001042 -0.004977
v 0.020084 0.000958 0.005000
v 0.020084 0.000958 -0.004976
v 0.018111 0.000958 0.005000
v 0.018111 0.000958 -0.004976
v 0.019965 -0.001042 0.002986
v 0.019965 -0.001042 0.001013
v 0.019965 -0.001042 -0.001036
v 0.019972 -0.001042 -0.002971
v -0.005000 0.000958 -0.015000
v 0.005000 0.000958 -0.015000
v 0.012058 -0.009034 -0.004953
v 0.019964 -0.002419 -0.004982
v 0.012656 -0.009046 -0.002970
v 0.012997 -0.009046 -0.000955
v 0.012958 -0.009042 0.001050
v -0.012652 -0.009049 -0.002989
v -0.020000 -0.002385 -0.005000
v -0.012038 -0.009037 -0.004995
v 0.020000 -0.002382 0.005000
v 0.012022 -0.009045 0.005026
v 0.012646 -0.009049 0.003012
v -0.012997 -0.009047 0.000963
v -0.020000 -0.002896 0.001000
v -0.012958 -0.009042 -0.001045
v -0.012037 -0.009042 0.004998
v -0.020000 -0.002382 0.005000
v -0.012655 -0.009046 0.002974
v 0.019965 -0.002930 0.001013
v 0.019965 -0.002925 -0.001036
v 0.019972 -0.002765 -0.002971
v 0.019964 -0.002761 0.002986
v -0.020008 -0.002891 -0.001020
v -0.020000 -0.002728 -0.003000
v -0.020000 -0.002737 0.003000
v 0.012798 -0.036042 0.000668
v 0.011487 -0.036042 0.005531
v 0.008836 -0.036042 0.009232
v 0.005038 -0.036042 0.011711
v 0.001122 -0.036042 0.012700
v -0.002906 -0.036042 0.012413
v -0.007537 -0.036042 0.010365
v -0.011184 -0.036042 0.006183
v -0.012610 -0.036042 0.001877
v -0.012564 -0.036042 -0.002161
v -0.010796 -0.036042 -0.006906
v -0.007663 -0.036042 -0.010160
v -0.004093 -0.036042 -0.012106
v 0.000397 -0.036042 -0.012743
v 0.004363 -0.036042 -0.011979
v 0.008717 -0.036042 -0.009394
v 0.011840 -0.036042 -0.004808
v -0.013459 -0.034035 -0.010482
v -0.012993 -0.032558 -0.009529
v -0.010368 -0.034056 -0.013508
v -0.009213 -0.032546 -0.013106
v -0.013456 -0.036042 -0.010434
v -0.010420 -0.036042 -0.013505
v -0.009209 -0.036042 -0.013110
v -0.010420 -0.034041 0.013507
v -0.009213 -0.032546 0.013106
v -0.012993 -0.032558 0.009529
v -0.013457 -0.034053 0.010434
v -0.010450 -0.036042 0.013504
v -0.013453 -0.036042 0.010422
v -0.012986 -0.036042 0.009346
v 0.013459 -0.034035 0.010482
v 0.012994 -0.032549 0.009372
v 0.009384 -0.032552 0.013095
v 0.010368 -0.034056 0.013508
v 0.013456 -0.036042 0.010434
v 0.010420 -0.036042 0.013505
v 0.009321 -0.036042 0.013267
v 0.010420 -0.034041 -0.013507
v 0.009380 -0.032541 -0.013088
v 0.013457 -0.034053 -0.010434
v 0.012994 -0.032549 -0.009372
v 0.009217 -0.036042 -0.013114
v 0.010450 -0.036042 -0.013504
v 0.013453 -0.036042 -0.010422
v 0.012997 -0.036042 -0.009367
v 0.014119 -0.030558 -0.007640
v 0.011137 -0.030567 -0.011593
v 0.006895 -0.030547 -0.014500
v 0.004305 -0.036042 -0.015551
v 0.002470 -0.030535 -0.015857
v -0.001566 -0.036042 -0.015971
v -0.003134 -0.030548 -0.015805
v -0.005845 -0.036042 -0.014945
v -0.007858 -0.030543 -0.013971
v -0.011428 -0.030570 -0.011308
v -0.014055 -0.030543 -0.007707
v -0.012986 -0.036042 -0.009346
v -0.014501 -0.036042 -0.006874
v -0.015710 -0.030531 -0.003420
v -0.015911 -0.036042 -0.002228
v -0.015964 -0.030572 0.001721
v -0.015832 -0.036042 0.002619
v -0.014605 -0.030542 0.006741
v -0.014501 -0.036042 0.006874
v -0.011431 -0.030570 0.011305
v -0.007890 -0.030546 0.013952
v -0.009209 -0.036042 0.013110
v -0.005845 -0.036042 0.014945
v -0.004217 -0.030534 0.015484
v -0.001566 -0.036042 0.015971
v 0.000182 -0.030540 0.016047
v 0.002828 -0.036042 0.015796
v 0.005846 -0.030555 0.015039
v 0.011086 -0.030555 0.011642
v 0.014681 -0.030563 0.006665
v 0.013027 -0.036042 0.009406
v 0.015266 -0.036042 0.004951
v 0.016008 -0.030536 0.001143
v 0.016039 -0.036042 0.000559
v 0.015684 -0.030537 -0.003404
v 0.015327 -0.036042 -0.004973
v 0.015291 -0.042628 0.002984
v 0.017008 -0.041043 0.002994
v 0.015585 -0.042637 -0.000544
v 0.017014 -0.041081 -0.002995
v 0.015299 -0.042578 -0.003006
v -0.015342 -0.042619 -0.002985
v -0.017002 -0.041045 -0.003002
v -0.017000 -0.041294 0.000003
v -0.015370 -0.042654 0.002914
v -0.017002 -0.041047 0.002969
v -0.002023 -0.050042 -0.000000
v -0.001498 -0.050042 -0.001429
v 0.000295 -0.050042 -0.002049
v 0.001590 -0.050042 -0.001250
v 0.002044 -0.050042 -0.000000
v 0.001479 -0.050042 0.001410
v -0.000099 -0.050042 0.002068
v -0.001606 -0.050042 0.001263
v 0.001802 -0.066042 -0.001158
v -0.000295 -0.066042 -0.002050
v -0.001953 -0.066042 -0.000782
v -0.001402 -0.066042 0.001618
v 0.000669 -0.066042 0.001932
v 0.001817 -0.066042 0.000937
v -0.017000 -0.036999 0.000340
v -0.007988 -0.037071 -0.000742
v -0.017000 -0.037970 0.001445
v -0.017000 -0.039421 0.001313
v -0.017000 -0.040083 0.000014
v -0.017000 -0.039421 -0.001286
v -0.017000 -0.037647 -0.001308
v -0.007928 -0.037428 0.001106
v -0.007871 -0.039152 -0.001473
v -0.008004 -0.040072 -0.000144
v -0.007877 -0.039316 0.001461
v 0.007874 -0.037976 0.001418
v 0.007868 -0.039135 0.001462
v 0.008020 -0.040150 0.000012
v 0.017006 -0.040134 0.000348
v 0.017003 -0.039428 -0.001247
v 0.007873 -0.039133 -0.001435
v 0.017003 -0.038196 -0.001487
v 0.007901 -0.037684 -0.001276
v 0.017005 -0.036965 -0.000339
v 0.007997 -0.037052 -0.000307
v 0.007967 -0.037213 0.000796
v 0.017006 -0.037601 0.001235
v 0.017007 -0.038844 0.001526
v 0.017008 -0.036042 0.002991
v 0.017000 -0.036042 -0.003004
v 0.017000 -0.063042 0.007000
v 0.006260 -0.063042 0.009714
v 0.006265 -0.063042 0.009188
v 0.017000 -0.063042 -0.007000
v 0.014500 -0.063042 0.005000
v 0.010249 -0.063042 0.005592
v 0.008964 -0.063043 0.006654
v 0.010860 -0.063043 0.002587
v 0.011586 -0.063042 -0.000595
v 0.010955 -0.063043 -0.002292
v 0.005997 -0.063042 -0.009869
v 0.005578 -0.063043 -0.009659
v 0.002745 -0.063042 -0.010754
v 0.000754 -0.063042 -0.011574
v 0.000039 -0.063042 -0.011140
v -0.003618 -0.063042 -0.010960
v -0.003524 -0.063042 -0.010570
v -0.007024 -0.063042 -0.009133
v -0.017000 -0.063042 -0.007000
v -0.007462 -0.063043 -0.008342
v -0.017000 -0.063042 0.007000
v -0.014500 -0.063042 0.005000
v -0.014500 -0.063042 -0.005000
v -0.009972 -0.063042 -0.005867
v -0.007024 -0.063042 0.009138
v -0.007935 -0.063042 0.007819
v -0.005162 -0.063042 0.009851
v -0.002877 -0.063042 0.011279
v -0.002345 -0.063042 0.010870
v 0.000559 -0.063042 0.011105
v 0.002072 -0.063042 0.011356
v 0.003515 -0.063042 0.010558
v -0.010280 -0.063043 -0.004355
v -0.011242 -0.063042 -0.002526
v -0.011164 -0.063043 0.000044
v -0.011500 -0.063042 0.001527
v -0.009899 -0.063042 0.005962
v 0.010000 -0.063042 -0.005902
v 0.014500 -0.063042 -0.005000
v -0.010068 -0.066042 0.005804
v -0.014500 -0.066042 0.005000
v -0.009934 -0.066042 -0.005904
v -0.011412 -0.066042 -0.001895
v -0.011394 -0.066042 0.001711
v -0.014500 -0.066042 -0.005000
v 0.014500 -0.066042 -0.005000
v 0.014500 -0.066042 0.005000
v 0.009900 -0.066042 0.005961
v 0.011297 -0.066042 0.002372
v 0.011478 -0.066042 -0.001226
v 0.010071 -0.066042 -0.005801
v -0.006918 -0.066042 0.009287
v -0.002248 -0.066042 0.011349
v 0.001818 -0.066042 0.011399
v 0.005793 -0.066042 0.009973
v -0.017000 -0.066042 0.007000
v -0.017000 -0.066042 -0.007000
v -0.007010 -0.066042 -0.009073
v 0.007048 -0.066042 -0.009151
v 0.003618 -0.066042 -0.010960
v -0.000754 -0.066042 -0.011574
v -0.005031 -0.066042 -0.010387
v 0.017000 -0.066042 -0.007000
v 0.017000 -0.066042 0.007000
v -0.010519 -0.032042 -0.001614
v -0.010539 -0.036042 0.000312
v -0.010069 -0.036042 -0.003127
v -0.008652 -0.032042 -0.006026
v -0.008260 -0.036042 -0.006596
v -0.006227 -0.032042 -0.008509
v -0.004534 -0.036042 -0.009585
v -0.003127 -0.032042 -0.010069
v -0.000312 -0.036042 -0.010539
v 0.001614 -0.032042 -0.010519
v 0.003127 -0.036042 -0.010069
v 0.006026 -0.032042 -0.008652
v 0.006596 -0.036042 -0.008260
v 0.008509 -0.032042 -0.006227
v 0.009585 -0.036042 -0.004534
v 0.010069 -0.032042 -0.003127
v 0.010539 -0.036042 -0.000312
v 0.010519 -0.032042 0.001614
v 0.010069 -0.036042 0.003127
v 0.008652 -0.032042 0.006026
v 0.008260 -0.036042 0.006596
v 0.006227 -0.032042 0.008509
v 0.004534 -0.036042 0.009585
v 0.003127 -0.032042 0.010069
v 0.000312 -0.036042 0.010539
v -0.001614 -0.032042 0.010519
v -0.003127 -0.036042 0.010069
v -0.006026 -0.032042 0.008652
v -0.006596 -0.036042 0.008260
v -0.008509 -0.032042 0.006227
v -0.009585 -0.036042 0.004534
v -0.010069 -0.032042 0.003127
v -0.012538 -0.032042 -0.001281
v -0.012539 -0.036042 0.000340
v -0.011690 -0.036042 -0.004812
v -0.011119 -0.032042 -0.005807
v -0.008564 -0.032042 -0.009202
v -0.007655 -0.036042 -0.010061
v -0.003686 -0.032042 -0.012093
v -0.002458 -0.036042 -0.012328
v 0.001065 -0.032042 -0.012478
v 0.002749 -0.036042 -0.012300
v 0.004733 -0.032042 -0.011645
v 0.007466 -0.036042 -0.010113
v 0.009059 -0.032042 -0.008762
v 0.010949 -0.036042 -0.006242
v 0.012160 -0.032042 -0.003456
v 0.012505 -0.036042 -0.001282
v 0.012420 -0.032042 0.001759
v 0.012191 -0.036042 0.002955
v 0.011146 -0.032042 0.005812
v 0.010755 -0.036042 0.006456
v 0.008539 -0.032042 0.009188
v 0.008340 -0.036042 0.009369
v 0.004997 -0.032042 0.011535
v 0.004733 -0.036042 0.011645
v 0.000381 -0.032042 0.012565
v 0.000577 -0.036042 0.012530
v -0.003658 -0.036042 0.012026
v -0.005193 -0.032042 0.011526
v -0.008234 -0.036042 0.009541
v -0.009348 -0.032042 0.008364
v -0.011586 -0.036042 0.004961
v -0.011829 -0.032042 0.004350
v 0.014972 -0.036042 -0.005809
v 0.015731 -0.036043 -0.003004
v 0.013009 -0.036043 -0.009377
v 0.013455 -0.036042 -0.010420
v 0.010435 -0.036042 -0.013517
v 0.009260 -0.036045 -0.013127
v 0.006963 -0.036042 -0.014461
v 0.003522 -0.036042 -0.015637
v -0.000128 -0.036043 -0.016052
v -0.004048 -0.036042 -0.015521
v -0.007263 -0.036043 -0.014298
v -0.009204 -0.036043 -0.013106
v -0.010435 -0.036042 -0.013517
v -0.013455 -0.036042 -0.010420
v -0.012986 -0.036042 -0.009346
v -0.014563 -0.036042 -0.006797
v -0.015743 -0.036043 -0.003004
v -0.017000 -0.036042 -0.003000
v -0.015774 -0.036044 0.002997
v -0.017000 -0.036042 0.003000
v -0.014975 -0.036042 0.005842
v -0.013455 -0.036042 0.010420
v -0.010435 -0.036042 0.013517
v -0.009242 -0.036043 0.013154
v -0.003946 -0.036042 0.015610
v 0.001407 -0.036042 0.016015
v 0.005497 -0.036043 0.015058
v 0.009261 -0.036044 0.013140
v 0.010435 -0.036042 0.013517
v 0.013455 -0.036042 0.010420
v 0.014290 -0.036042 0.007275
v 0.015782 -0.036044 0.003010
v 0.007966 -0.050042 0.001388
v 0.008023 -0.036042 0.000007
v 0.007347 -0.036042 -0.003570
v 0.007741 -0.050042 -0.002184
v -0.007341 -0.036042 0.003579
v -0.007966 -0.050042 0.001388
v -0.007741 -0.050042 -0.002184
v -0.008023 -0.036042 0.000010
v -0.007000 -0.050042 0.003873
v -0.006998 -0.040042 0.003909
v -0.005446 -0.040042 0.005909
v -0.004671 -0.036042 0.006527
v -0.005432 -0.050042 0.005939
v -0.003880 -0.050042 0.006996
v -0.003880 -0.040042 0.006996
v -0.002267 -0.036042 0.007723
v -0.002325 -0.040042 0.007684
v -0.002316 -0.050042 0.007689
v -0.000760 -0.050042 0.007964
v -0.000760 -0.040042 0.007964
v 0.000824 -0.036042 0.008004
v 0.000757 -0.040042 0.007988
v 0.000760 -0.050042 0.007964
v 0.002316 -0.050042 0.007689
v 0.002325 -0.040042 0.007684
v 0.004082 -0.036042 0.006963
v 0.003880 -0.040042 0.006996
v 0.003880 -0.050042 0.006996
v 0.005432 -0.050042 0.005939
v 0.005446 -0.040042 0.005909
v 0.007341 -0.036042 0.003579
v 0.006998 -0.040042 0.003909
v 0.007000 -0.050042 0.003873
v 0.007000 -0.050042 -0.003873
v 0.006998 -0.040042 -0.003909
v 0.005446 -0.040042 -0.005909
v 0.004671 -0.036042 -0.006527
v 0.005432 -0.050042 -0.005939
v 0.003880 -0.050042 -0.006996
v 0.003880 -0.040042 -0.006996
v 0.002267 -0.036042 -0.007723
v 0.002325 -0.040042 -0.007684
v 0.002316 -0.050042 -0.007689
v 0.000760 -0.050042 -0.007964
v 0.000760 -0.040042 -0.007964
v -0.000824 -0.036042 -0.008004
v -0.000757 -0.040042 -0.007988
v -0.000760 -0.050042 -0.007964
v -0.002316 -0.050042 -0.007689
v -0.002325 -0.040042 -0.007684
v -0.004082 -0.036042 -0.006963
v -0.003880 -0.040042 -0.006996
v -0.003880 -0.050042 -0.006996
v -0.005432 -0.050042 -0.005939
v -0.005446 -0.040042 -0.005909
v -0.007347 -0.036042 -0.003570
v -0.006998 -0.040042 -0.003909
v -0.007000 -0.050042 -0.003873
v -0.000759 -0.050029 0.014545
v -0.000761 -0.040049 0.015799
v -0.000757 -0.050033 -0.014558
v -0.000758 -0.040046 -0.015787
v 0.000762 -0.040044 0.015795
v 0.000763 -0.040050 -0.015813
v 0.000762 -0.049986 0.014540
v 0.002317 -0.044804 0.015164
v 0.002325 -0.050042 0.014315
v 0.002322 -0.040042 0.015622
v 0.002320 -0.040047 -0.015631
v 0.002321 -0.050023 -0.014344
v 0.003883 -0.040050 -0.015352
v 0.003883 -0.040050 0.015351
v 0.003880 -0.050036 0.013992
v -0.003881 -0.050041 0.013981
v -0.003881 -0.040057 0.015342
v -0.003881 -0.040057 -0.015342
v -0.003881 -0.050041 -0.013982
v -0.002320 -0.040044 -0.015641
v -0.002316 -0.040070 0.015700
v -0.002322 -0.050044 0.014333
v 0.005440 -0.044769 0.014346
v 0.005439 -0.050041 0.013444
v 0.005441 -0.040042 0.014827
v 0.005445 -0.040089 -0.014872
v 0.005439 -0.050027 -0.013472
v 0.007000 -0.040043 0.014175
v 0.007001 -0.040043 -0.014177
v 0.007007 -0.050029 0.012786
v -0.007007 -0.040052 -0.014216
v -0.007000 -0.050035 -0.012728
v -0.005434 -0.050025 -0.013538
v -0.005439 -0.040044 -0.014842
v -0.005437 -0.049977 0.013555
v -0.005440 -0.040043 0.014845
v -0.007008 -0.040077 0.014216
v 0.000762 -0.050030 -0.014503
v -0.002315 -0.050024 -0.014378
v 0.003880 -0.050040 -0.013991
v 0.006999 -0.050031 -0.012782
v -0.006999 -0.050040 0.012724
v 0.013471 -0.040997 -0.010470
v 0.012723 -0.044036 -0.008744
v 0.010361 -0.044042 -0.011465
v 0.010366 -0.041017 -0.013510
v 0.008506 -0.044038 -0.012863
v 0.010366 -0.041017 0.013510
v 0.008547 -0.044043 0.012862
v 0.013471 -0.040997 0.010470
v 0.012715 -0.044041 0.008742
v -0.010366 -0.041017 -0.013510
v -0.010499 -0.044043 -0.011340
v -0.013471 -0.040997 -0.010470
v -0.008555 -0.044008 -0.012886
v -0.013471 -0.040997 0.010470
v -0.012716 -0.044042 0.008731
v -0.010587 -0.044043 0.011264
v -0.010366 -0.041017 0.013510
v -0.008537 -0.044022 0.012875
v -0.013015 -0.036046 0.009405
v 0.014111 -0.049825 0.003632
v 0.012596 -0.053187 0.005890
v 0.008948 -0.056387 0.009629
v 0.010276 -0.044042 0.011609
v 0.014401 -0.043025 0.006034
v 0.013024 -0.036049 0.009421
v -0.006634 -0.056112 0.011425
v -0.004413 -0.055957 0.012513
v -0.001619 -0.057927 0.012604
v -0.014138 -0.041913 0.006770
v -0.014771 -0.048621 0.001498
v -0.014817 -0.043009 -0.004898
v -0.013249 -0.048603 -0.006608
v -0.012760 -0.044018 -0.008775
v 0.000394 -0.056363 -0.013145
v -0.002440 -0.056113 -0.013018
v -0.012186 -0.059125 -0.002216
v -0.010441 -0.063040 0.004046
v -0.011649 -0.057349 0.005475
v -0.010089 -0.057689 0.007859
v -0.008225 -0.057455 0.009875
v 0.003734 -0.055912 -0.012755
v 0.009020 -0.048724 -0.011711
v 0.008020 -0.053893 -0.011193
v 0.009182 -0.057455 -0.008993
v 0.009018 -0.063040 -0.006597
v 0.012144 -0.057349 -0.004268
v 0.013073 -0.056401 -0.001479
v 0.012515 -0.057848 0.002459
v 0.010723 -0.059342 0.006120
v 0.011535 -0.050312 -0.008790
v 0.011299 -0.056100 -0.006796
v 0.013351 -0.051154 -0.005206
v 0.013499 -0.044324 -0.007507
v 0.014809 -0.043490 -0.004723
v 0.014775 -0.048340 -0.001423
v 0.014425 -0.050622 0.001057
v 0.005830 -0.059002 -0.010968
v 0.000649 -0.055978 0.013262
v 0.003908 -0.055940 0.012678
v 0.006608 -0.056068 0.011486
v -0.005506 -0.056415 -0.011971
v -0.009157 -0.050894 -0.011152
v -0.008900 -0.057637 -0.009207
v -0.011232 -0.057823 -0.006085
v -0.013807 -0.052460 -0.002834
v -0.013104 -0.056266 0.001717
v -0.013811 -0.048829 0.005244
v 0.011795 -0.051013 0.008272
v -0.008531 -0.051144 0.011530
v -0.011715 -0.050234 0.008616
v -0.011617 -0.050815 -0.008528
vn 1.0000 -0.0000 -0.0000
vn -0.0000 -0.0000 1.0000
vn -0.0000 -0.0000 -1.0000
vn -0.0000 -1.0000 -0.0000
vn -1.0000 -0.0000 -0.0000
vn -0.0000 1.0000 -0.0000
vn 0.9862 -0.1621 -0.0353
vn 0.9449 0.1177 -0.3053
vn 0.9352 -0.0386 -0.3521
vn 0.7565 0.0444 -0.6525
vn 0.7297 -0.1006 -0.6763
vn 0.4288 0.1385 -0.8927
vn 0.3376 -0.1794 -0.9240
vn 0.0966 0.1705 -0.9806
vn -0.0353 -0.1621 -0.9862
vn -0.3053 0.1177 -0.9449
vn -0.3521 -0.0386 -0.9352
vn -0.6525 0.0444 -0.7565
vn -0.6763 -0.1006 -0.7297
vn -0.8927 0.1385 -0.4288
vn -0.9240 -0.1794 -0.3376
vn -0.9806 0.1705 -0.0966
vn -0.9862 -0.1621 0.0353
vn -0.9449 0.1177 0.3053
vn -0.9352 -0.0386 0.3521
vn -0.7565 0.0444 0.6525
vn -0.7297 -0.1006 0.6763
vn -0.4288 0.1385 0.8927
vn -0.3376 -0.1794 0.9240
vn -0.0966 0.1705 0.9806
vn 0.0353 -0.1621 0.9861
vn 0.3053 0.1177 0.9449
vn 0.3521 -0.0386 0.9352
vn 0.6525 0.0444 0.7565
vn 0.6763 -0.1006 0.7297
vn 0.8927 0.1385 0.4288
vn 0.9240 -0.1794 0.3376
vn 0.9806 0.1705 0.0966
vn 0.4434 -0.8877 0.1237
vn 0.3636 -0.9188 0.1535
vn 0.3398 -0.8870 0.3126
vn 0.3294 -0.8994 0.2874
vn 0.1923 -0.9142 0.3567
vn 0.1764 -0.8928 0.4144
vn 0.0690 -0.9200 0.3857
vn -0.0458 -0.8458 0.5315
vn -0.0903 -0.9048 0.4161
vn -0.2230 -0.9099 0.3497
vn -0.2243 -0.8961 0.3830
vn -0.3250 -0.9128 0.2472
vn -0.4829 -0.8396 0.2488
vn -0.4034 -0.9054 0.1324
vn -0.4226 -0.9063 0.0009
vn -0.4223 -0.9065 0.0011
vn -0.4012 -0.9003 -0.1688
vn -0.3921 -0.9065 -0.1568
vn -0.3315 -0.8928 -0.3049
vn -0.3040 -0.9261 -0.2234
vn -0.2558 -0.8878 -0.3825
vn -0.1955 -0.9112 -0.3626
vn -0.0885 -0.9014 -0.4238
vn -0.0732 -0.9095 -0.4092
vn 0.0516 -0.8945 -0.4440
vn 0.0845 -0.9119 -0.4015
vn 0.1787 -0.8928 -0.4135
vn 0.1977 -0.9173 -0.3456
vn 0.3302 -0.8881 -0.3198
vn 0.3235 -0.9137 -0.2460
vn 0.3980 -0.8942 -0.2052
vn 0.3842 -0.9146 -0.1261
vn 0.4531 -0.8891 -0.0650
vn 0.3939 -0.9192 -0.0010
vn 0.0016 -0.9999 -0.0164
vn 0.0074 -1.0000 -0.0049
vn -0.9960 -0.0075 0.0889
vn -0.9319 -0.0035 -0.3626
vn -0.9251 -0.0009 -0.3797
vn -0.7346 0.0025 -0.6785
vn -0.7056 -0.0024 -0.7086
vn -0.4483 0.0010 -0.8939
vn -0.4748 -0.0029 -0.8801
vn 0.2129 -0.0017 -0.9771
vn 0.2020 -0.0033 -0.9794
vn 0.6089 -0.0085 -0.7932
vn 0.7905 0.0083 -0.6124
vn 0.9068 -0.0073 -0.4216
vn 0.9503 0.0032 -0.3114
vn 0.9988 -0.0025 -0.0480
vn 0.9319 -0.0035 0.3626
vn 0.9251 -0.0009 0.3797
vn 0.7346 0.0025 0.6785
vn 0.7056 -0.0024 0.7086
vn 0.4483 0.0010 0.8939
vn 0.4748 -0.0029 0.8801
vn -0.1777 -0.0015 0.9841
vn -0.4625 -0.0018 0.8866
vn -0.8012 -0.0035 0.5985
vn -0.7906 -0.0066 0.6123
vn -0.9495 0.0081 0.3138
vn 1.0000 0.0038 0.0069
vn 0.5041 0.0052 -0.8636
vn -0.1384 -0.0001 -0.9904
vn -0.1744 0.0042 -0.9847
vn -1.0000 0.0038 -0.0087
vn -0.5094 0.0040 0.8605
vn -0.2121 0.0023 0.9772
vn 0.1384 -0.0001 0.9904
vn 0.1744 0.0042 0.9847
vn -0.5735 -0.0398 -0.8182
vn -0.5402 -0.0322 -0.8409
vn -0.5614 -0.5000 -0.6594
vn -0.6141 -0.5140 -0.5989
vn -0.6708 -0.4792 -0.5661
vn -0.6386 -0.4447 -0.6280
vn -0.2669 -0.7774 -0.5696
vn -0.2088 -0.7313 -0.6493
vn -0.1646 -0.7320 -0.6611
vn -0.0638 -0.7653 -0.6404
vn 0.0214 -0.7367 -0.6759
vn 0.1113 -0.7403 -0.6630
vn 0.1620 -0.7571 -0.6329
vn 0.2392 -0.7373 -0.6318
vn 0.3913 -0.7571 -0.5232
vn -0.0560 -0.4657 -0.8832
vn 0.0752 -0.3570 -0.9311
vn 0.0262 -0.2473 -0.9686
vn -0.0159 -0.4664 -0.8844
vn -0.0415 -0.0071 -0.9991
vn -0.0024 0.0141 -0.9999
vn -0.0009 0.0125 -0.9999
vn 0.5030 -0.3138 -0.8053
vn -0.8805 0.0069 -0.4740
vn -0.8755 -0.0014 -0.4833
vn -0.8784 -0.0048 -0.4778
vn 0.5717 -0.0333 -0.8198
vn 0.5322 -0.0222 -0.8463
vn 0.5710 -0.4863 -0.6614
vn 0.6678 -0.4081 -0.6225
vn 0.6560 -0.4599 -0.5985
vn 0.8795 0.0079 -0.4757
vn 0.8750 0.0002 -0.4840
vn 0.8913 -0.0185 -0.4531
vn 0.6345 -0.4864 0.6006
vn 0.6158 -0.4393 0.6541
vn 0.5243 -0.5520 0.6484
vn 0.8755 -0.0352 0.4819
vn 0.7630 -0.3499 0.5436
vn 0.3021 -0.7768 0.5526
vn 0.2457 -0.7193 0.6497
vn 0.1369 -0.7274 0.6724
vn 0.0278 -0.7691 0.6385
vn -0.0593 -0.7307 0.6802
vn -0.2140 -0.7560 0.6186
vn -0.2112 -0.7500 0.6269
vn -0.4159 -0.7370 0.5328
vn -0.3427 -0.0612 0.9374
vn -0.3599 -0.2702 0.8930
vn -0.0410 -0.4524 0.8909
vn 0.0021 -0.2511 0.9680
vn -0.5486 -0.5061 0.6655
vn -0.6678 -0.4075 0.6229
vn -0.6560 -0.4599 0.5985
vn -0.8774 0.0155 0.4795
vn -0.8713 0.0044 0.4908
vn -0.8912 -0.0185 0.4532
vn -0.0002 0.0268 0.9996
vn 0.0092 0.0048 0.9999
vn 0.3800 -0.0528 0.9235
vn 0.8880 0.0188 0.4595
vn 0.8800 -0.0008 0.4749
vn 0.7959 -0.0092 0.6053
vn 0.0502 0.0073 0.9987
vn 0.1126 0.0002 0.9936
vn -0.0001 1.0000 -0.0000
vn -0.0001 1.0000 -0.0001
vn -0.0000 1.0000 0.0001
vn 0.6261 -0.0097 -0.7797
vn 0.9991 0.0080 -0.0421
vn 0.9905 -0.0032 -0.1377
vn -0.7924 -0.0093 -0.6099
vn -0.0456 0.0075 -0.9989
vn -0.1095 -0.0000 -0.9940
vn -0.8503 -0.0078 0.5262
vn -0.9998 0.0120 0.0146
vn -0.9983 0.0071 0.0571
vn -0.0659 0.0041 0.9978
vn -0.1063 -0.0006 0.9943
vn 0.0624 0.0090 -0.9980
vn 0.0290 0.0045 -0.9996
vn 0.6579 0.0437 -0.7519
vn 0.5316 -0.0039 -0.8470
vn 0.2708 -0.0142 -0.9625
vn 0.1202 0.0253 -0.9924
vn -0.0318 -0.0120 -0.9994
vn -0.3342 0.0059 -0.9425
vn -0.3259 0.0028 -0.9454
vn -0.5746 -0.0017 -0.8184
vn -0.5826 -0.0000 -0.8127
vn -0.9998 0.0100 -0.0183
vn -0.9950 0.0007 -0.1003
vn -0.8364 0.0019 -0.5482
vn -0.8596 -0.0114 -0.5108
vn -0.9891 0.0030 -0.1475
vn -0.9926 0.0141 -0.1202
vn -0.9803 -0.0161 0.1968
vn -0.9453 0.0168 0.3259
vn -0.8536 -0.0113 0.5208
vn -0.7020 0.0323 0.7114
vn 0.3499 0.0103 0.9367
vn 0.3275 0.0044 0.9448
vn 0.5270 -0.0046 0.8498
vn 0.5439 0.0006 0.8391
vn 0.9999 0.0102 0.0123
vn 0.9986 0.0055 0.0525
vn 0.7716 0.0327 0.6353
vn 0.8187 0.0095 0.5742
vn 0.9390 -0.0199 0.3434
vn 0.9925 0.0224 0.1202
vn 0.9990 -0.0016 0.0448
vn 0.9623 -0.0078 -0.2717
vn 0.9453 0.0105 -0.3259
vn 0.8264 -0.0042 -0.5631
vn 0.5972 0.0537 -0.8003
vn -0.5622 -0.0016 0.8270
vn -0.5425 0.0040 0.8400
vn -0.3328 0.0022 0.9430
vn -0.3305 0.0014 0.9438
vn -0.0405 0.0013 0.9992
vn -0.0047 0.0108 0.9999
vn 0.0001 -0.0000 -1.0000
vn -0.0000 0.0001 -1.0000
vn 0.9994 -0.0335 -0.0012
vn 0.9992 -0.0397 -0.0000
vn -0.0000 0.0001 1.0000
vn -0.0001 -0.0000 1.0000
vn -0.0007 -0.0000 -1.0000
vn -0.0000 0.0006 -1.0000
vn 0.0003 -1.0000 -0.0000
vn -0.0001 -1.0000 -0.0000
vn -0.9814 0.1718 0.0854
vn -0.9950 -0.0000 -0.1000
vn 0.9743 0.1679 -0.1502
vn 0.9981 -0.0000 0.0622
vn 0.6290 -0.7527 -0.1946
vn 0.6574 -0.7534 0.0142
vn -0.6285 -0.7525 -0.1970
vn 0.6290 -0.7523 0.1962
vn -0.6574 -0.7534 -0.0146
vn -0.6294 -0.7526 0.1937
vn 0.6600 -0.7513 -0.0017
vn 0.6457 -0.7521 -0.1319
vn 0.6465 -0.7518 0.1300
vn -0.6599 -0.7513 0.0009
vn -0.6466 -0.7519 -0.1289
vn -0.6455 -0.7520 0.1334
vn 0.0001 -0.0001 1.0000
vn -0.0000 -0.0002 1.0000
vn 0.0042 -0.0000 1.0000
vn 0.0044 -0.0010 1.0000
vn -0.0014 -0.0001 1.0000
vn -0.0015 -0.0000 1.0000
vn -0.0017 -0.0001 1.0000
vn 0.9998 -0.0126 -0.0152
vn 0.9997 -0.0000 -0.0259
vn -0.0036 -0.0001 -1.0000
vn -0.0035 -0.0000 -1.0000
vn -0.0033 -0.0002 -1.0000
vn -0.0108 -0.0000 -0.9999
vn -0.0110 -0.0007 -0.9999
vn 0.0004 -0.0001 1.0000
vn 0.0002 -0.0000 1.0000
vn 0.0053 -0.0000 1.0000
vn 0.9990 -0.0321 -0.0320
vn 0.9998 0.0009 0.0198
vn 0.9954 0.0112 0.0950
vn 0.9911 0.0046 -0.1330
vn 0.9918 0.0040 -0.1279
vn 0.9442 -0.0045 -0.3294
vn 0.9573 0.0014 -0.2891
vn 0.9237 -0.0608 -0.3781
vn 0.8891 0.0042 -0.4577
vn 0.8943 0.0013 -0.4474
vn 0.7651 0.0123 -0.6438
vn 0.7259 0.0017 -0.6878
vn 0.7076 -0.0151 -0.7065
vn 0.4755 0.0740 -0.8766
vn 0.5500 -0.0363 -0.8344
vn 0.2458 0.0625 -0.9673
vn 0.0862 -0.0693 -0.9939
vn -0.0971 0.0455 -0.9942
vn -0.2765 -0.0406 -0.9602
vn -0.4234 0.0507 -0.9045
vn -0.5629 -0.0447 -0.8253
vn -0.6655 0.0096 -0.7463
vn -0.7470 0.0018 -0.6649
vn -0.7521 -0.0008 -0.6590
vn -0.7959 -0.0159 -0.6052
vn -0.8862 0.0097 -0.4631
vn -0.9171 0.0041 -0.3985
vn -0.9580 -0.0247 -0.2857
vn -0.9557 -0.0313 -0.2928
vn -0.9756 -0.0041 -0.2195
vn -0.9955 0.0110 -0.0943
vn -0.9903 -0.0000 -0.1390
vn -0.9998 0.0009 -0.0194
vn -0.9990 -0.0321 0.0324
vn -0.9917 0.0040 0.1285
vn -0.9910 0.0046 0.1336
vn -0.9438 -0.0045 0.3304
vn -0.9564 0.0011 0.2921
vn -0.9339 -0.0433 0.3548
vn -0.8984 0.0041 0.4391
vn -0.8870 0.0084 0.4617
vn -0.7598 -0.0037 0.6501
vn -0.7561 -0.0015 0.6544
vn -0.8689 0.1777 0.4620
vn -0.5924 -0.0422 0.8045
vn -0.5620 -0.0058 0.8271
vn -0.3167 0.0187 0.9483
vn -0.2392 -0.0505 0.9696
vn 0.0424 0.0737 0.9964
vn 0.2007 -0.0893 0.9756
vn 0.4715 0.0632 0.8796
vn 0.6174 -0.0550 0.7847
vn 0.6565 -0.0127 0.7542
vn 0.6757 0.0001 0.7372
vn 0.7268 0.0140 0.6867
vn 0.8693 0.0109 0.4942
vn 0.8717 0.0118 0.4899
vn 0.9235 0.0017 0.3835
vn 0.9574 -0.0247 0.2877
vn 0.9547 -0.0323 0.2958
vn 0.9753 -0.0041 0.2209
vn 0.9902 -0.0000 0.1399
vn -0.0036 -0.0000 -1.0000
vn -1.0000 0.0023 0.0021
vn -1.0000 -0.0000 0.0042
vn 0.0004 -0.0002 -1.0000
vn 0.0003 0.0001 -1.0000
vn 0.0001 0.0004 -1.0000
vn -1.0000 -0.0001 -0.0000
vn -1.0000 -0.0021 -0.0021
vn -1.0000 0.0062 0.0021
vn 0.0035 -0.0003 1.0000
vn 0.0036 -0.0000 1.0000
vn -0.0037 0.0002 -1.0000
vn 0.9999 -0.0000 0.0163
vn 0.9995 -0.0290 -0.0086
vn -0.0036 -0.0002 -1.0000
vn -0.0036 0.0001 -1.0000
vn -0.0007 0.0040 -1.0000
vn -0.9988 -0.0478 0.0095
vn -0.9645 0.0455 -0.2601
vn -0.9268 -0.0352 -0.3739
vn -0.8070 0.0181 -0.5903
vn -0.8130 0.0096 -0.5822
vn -0.5566 -0.0164 -0.8306
vn -0.5467 -0.0051 -0.8373
vn -0.2447 0.0069 -0.9696
vn -0.2043 -0.0252 -0.9786
vn 0.0709 0.0142 -0.9974
vn 0.1151 -0.0155 -0.9932
vn 0.3948 -0.0024 -0.9188
vn 0.4045 0.0077 -0.9145
vn 0.7196 -0.0169 -0.6942
vn 0.7535 0.0261 -0.6570
vn 0.8883 -0.0370 -0.4577
vn 0.9487 0.0332 -0.3143
vn 0.9886 -0.0484 -0.1424
vn 0.9992 0.0377 0.0113
vn 0.9611 -0.0307 0.2746
vn 0.9366 0.0306 0.3491
vn 0.7542 -0.0527 0.6545
vn 0.7204 -0.0011 0.6936
vn 0.4784 0.0269 0.8777
vn 0.3899 -0.0443 0.9198
vn 0.1404 0.0287 0.9897
vn 0.0662 -0.0182 0.9976
vn -0.1891 0.0189 0.9818
vn -0.2382 -0.0145 0.9711
vn -0.5104 0.0152 0.8598
vn -0.5404 -0.0171 0.8412
vn -0.8137 0.0016 0.5812
vn -0.8264 0.0230 0.5627
vn -0.9560 -0.0253 0.2923
vn -0.9841 0.0435 0.1722
vn -0.5758 0.5639 -0.5920
vn -0.5589 0.5842 -0.5885
vn -0.7110 -0.0177 -0.7030
vn -0.6994 0.0174 -0.7146
vn 0.3105 -0.0091 -0.9505
vn 0.3269 0.0016 -0.9451
vn -0.5507 0.6004 0.5798
vn -0.5986 0.5427 0.5892
vn -0.7113 0.0093 0.7028
vn -0.7162 -0.0057 0.6979
vn -0.9174 0.0004 -0.3980
vn -0.9030 0.0209 -0.4292
vn 0.5755 0.5975 0.5584
vn 0.5838 0.5470 0.6000
vn 0.7110 -0.0177 0.7030
vn 0.6994 0.0174 0.7146
vn -0.2123 -0.0066 0.9772
vn -0.3172 0.0524 0.9469
vn 0.5865 0.5682 -0.5772
vn 0.5844 0.5805 -0.5670
vn -0.3449 0.0228 -0.9384
vn -0.3018 -0.0061 -0.9534
vn 0.7113 0.0093 -0.7028
vn 0.7162 -0.0057 -0.6979
vn 0.9180 0.0004 0.3965
vn 0.9173 0.0015 0.3983
vn 0.8385 -0.0000 -0.5449
vn 0.7962 0.0725 -0.6007
vn 0.7125 -0.1094 -0.6931
vn 0.5615 0.1201 -0.8187
vn 0.4841 -0.0161 -0.8749
vn 0.4442 -0.0381 -0.8951
vn 0.2930 0.0447 -0.9551
vn 0.0712 -0.0316 -0.9970
vn -0.0093 0.0275 -0.9996
vn -0.2329 -0.0372 -0.9718
vn -0.3618 0.0327 -0.9317
vn -0.4787 -0.0197 -0.8777
vn -0.5384 0.0004 -0.8427
vn -0.5972 0.0587 -0.7999
vn -0.6831 -0.1084 -0.7222
vn -0.8028 0.1071 -0.5866
vn -0.8762 -0.0268 -0.4812
vn -0.8526 -0.0099 -0.5224
vn -0.9327 0.0212 -0.3602
vn -0.9565 -0.0278 -0.2903
vn -0.9985 0.0259 -0.0492
vn -0.9996 -0.0214 0.0163
vn -0.9651 0.0196 0.2612
vn -0.9543 -0.0107 0.2986
vn -0.8527 -0.0034 0.5224
vn -0.8737 -0.0270 0.4857
vn -0.8133 0.1330 0.5665
vn -0.6831 -0.1083 0.7222
vn -0.5981 0.0574 0.7993
vn -0.5394 0.0004 0.8421
vn -0.4787 -0.0196 0.8777
vn -0.3850 0.0234 0.9226
vn -0.2330 -0.0263 0.9721
vn -0.1268 0.0265 0.9916
vn 0.0398 -0.0265 0.9989
vn 0.1752 0.0393 0.9837
vn 0.3620 -0.0709 0.9295
vn 0.4960 0.0339 0.8677
vn 0.5382 0.1451 0.8303
vn 0.7140 -0.1052 0.6922
vn 0.8060 0.1084 0.5819
vn 0.8442 0.0132 0.5358
vn 0.8926 -0.0450 0.4486
vn 0.9718 0.0306 0.2338
vn 0.9848 -0.0129 0.1734
vn 0.9974 0.0131 -0.0712
vn 0.9914 -0.0280 -0.1276
vn 0.9373 0.0379 -0.3465
vn 0.8830 -0.0332 -0.4682
vn 0.3139 0.0016 0.9495
vn 0.3025 -0.0061 0.9531
vn -0.9098 0.0201 0.4146
vn -0.9181 0.0078 0.3963
vn 0.9244 0.0049 -0.3813
vn 0.9226 0.0076 -0.3856
vn -0.4808 0.5251 0.7022
vn -0.4975 0.5627 0.6602
vn -0.3284 0.5281 0.7831
vn -0.2188 0.5828 0.7826
vn -0.1067 0.5323 0.8398
vn -0.0075 0.5802 0.8144
vn 0.1521 0.5097 0.8468
vn 0.2052 0.5621 0.8012
vn 0.4565 0.5438 0.7042
vn 0.4510 0.5309 0.7174
vn 0.4522 0.5313 0.7164
vn 0.6704 0.5270 0.5223
vn 0.7482 0.4914 0.4458
vn 0.6965 0.5216 0.4927
vn 0.6884 0.5289 0.4963
vn -0.4208 0.4928 0.7616
vn -0.7112 0.5347 0.4564
vn -0.6246 0.5569 0.5475
vn -0.6942 0.5309 0.4861
vn -0.7002 0.5706 0.4292
vn -0.8179 0.5323 0.2183
vn -0.8037 0.5726 0.1619
vn -0.8483 0.5281 -0.0378
vn -0.8002 0.5880 -0.1179
vn -0.7977 0.5176 -0.3094
vn -0.6984 0.5800 -0.4193
vn -0.6796 0.5369 -0.4998
vn -0.6828 0.5356 -0.4969
vn -0.6567 0.5417 -0.5247
vn -0.4247 0.4953 -0.7578
vn -0.4871 0.5285 -0.6953
vn -0.5006 0.5536 -0.6655
vn -0.3037 0.5422 -0.7835
vn -0.2777 0.5622 -0.7790
vn -0.0251 0.5548 -0.8316
vn -0.0091 0.5395 -0.8419
vn 0.2224 0.5622 -0.7966
vn 0.2472 0.5447 -0.8013
vn 0.4424 0.5593 -0.7011
vn 0.4795 0.5343 -0.6961
vn 0.5247 0.5507 -0.6491
vn 0.5219 0.5504 -0.6516
vn 0.7831 0.4698 -0.4075
vn 0.7067 0.5170 -0.4830
vn 0.6613 0.5590 -0.5001
vn 0.7930 0.5327 -0.2956
vn 0.7840 0.5806 -0.2198
vn 0.8461 0.5297 -0.0604
vn 0.8139 0.5798 0.0364
vn 0.8304 0.5192 0.2022
vn 0.7661 0.5801 0.2767
vn 0.6770 -0.7337 0.0583
vn 0.7405 -0.6720 0.0050
vn 0.6550 -0.7497 -0.0942
vn -0.6865 -0.7247 -0.0595
vn -0.6327 -0.7744 -0.0076
vn -0.6993 -0.7124 0.0586
vn -0.9999 0.0146 0.0076
vn -0.9400 -0.0105 0.3410
vn -0.5248 -0.0020 0.8512
vn -0.3917 0.0144 0.9200
vn 0.3270 -0.0121 0.9449
vn 0.6075 0.0148 0.7942
vn 0.9386 -0.0128 0.3447
vn 0.9746 0.0152 -0.2236
vn 0.9497 0.0052 -0.3131
vn 0.4707 -0.0136 -0.8822
vn 0.1498 0.0156 -0.9886
vn -0.3847 -0.0106 -0.9230
vn -0.6548 0.0085 -0.7557
vn -0.9283 -0.0086 -0.3716
vn 0.0151 0.0901 -0.9958
vn -0.0256 -0.1855 -0.9823
vn 0.0202 -0.7509 -0.6601
vn -0.0305 -0.9816 -0.1886
vn 0.0365 -0.9299 0.3659
vn -0.0378 -0.3329 0.9422
vn 0.0201 0.0125 0.9997
vn -0.0126 0.8228 0.5682
vn 0.0068 0.8911 0.4538
vn -0.0086 0.9048 -0.4257
vn -0.0030 0.8911 -0.4539
vn -0.0168 0.9144 0.4046
vn 0.0147 0.8186 0.5742
vn -0.0140 0.1916 0.9814
vn 0.0169 -0.1094 0.9939
vn -0.0214 -0.6820 0.7311
vn 0.0100 -0.8383 0.5452
vn 0.0091 -0.9895 -0.1441
vn -0.0216 -0.9270 -0.3745
vn 0.0104 -0.6330 -0.7741
vn -0.0102 -0.2279 -0.9736
vn 0.0082 -0.0380 -0.9992
vn -0.0163 0.6744 -0.7382
vn 0.0199 0.8199 -0.5722
vn 1.0000 0.0016 -0.0014
vn 1.0000 -0.0001 -0.0020
vn 1.0000 0.0028 0.0021
vn 1.0000 0.0013 0.0050
vn 1.0000 0.0057 0.0008
vn -0.0000 1.0000 -0.0002
vn 0.0007 1.0000 0.0005
vn -0.0001 1.0000 0.0003
vn -0.0005 1.0000 -0.0002
vn -0.0092 1.0000 -0.0020
vn -0.0010 1.0000 -0.0001
vn 0.0002 1.0000 -0.0009
vn -0.0010 1.0000 0.0003
vn -0.0003 1.0000 0.0017
vn 0.0007 1.0000 -0.0020
vn -0.0000 1.0000 -0.0003
vn -0.0000 1.0000 -0.0001
vn 0.0006 1.0000 0.0014
vn 0.0003 1.0000 0.0012
vn -0.0003 1.0000 0.0004
vn -0.0000 1.0000 0.0007
vn -0.0000 1.0000 0.0009
vn 0.0001 1.0000 0.0003
vn 0.0002 1.0000 0.0004
vn 0.0002 1.0000 0.0005
vn 0.0008 1.0000 0.0004
vn 0.0015 1.0000 0.0006
vn 0.0006 1.0000 0.0001
vn 0.0015 1.0000 0.0001
vn -0.0009 1.0000 -0.0004
vn -0.0136 0.9999 0.0049
vn -0.0014 1.0000 0.0014
vn -0.0063 1.0000 0.0019
vn 0.0027 1.0000 -0.0005
vn 0.0004 1.0000 0.0027
vn 0.1783 0.0417 -0.9831
vn 0.2046 -0.0000 -0.9788
vn -0.9382 -0.0075 -0.3460
vn -0.9345 -0.0216 -0.3553
vn -0.9971 0.0433 -0.0634
vn -0.9994 -0.0347 0.0050
vn -0.9512 -0.0143 0.3083
vn -0.9401 0.0350 0.3392
vn 0.1942 -0.0000 0.9810
vn 0.1881 -0.0097 0.9821
vn -0.1779 0.0287 0.9836
vn -0.1965 -0.0000 0.9805
vn 0.9301 -0.0635 0.3618
vn 0.9711 0.1139 0.2099
vn 0.9976 -0.0467 0.0502
vn 0.9555 0.0272 -0.2938
vn 0.9580 0.0130 -0.2864
vn -0.2045 -0.0000 -0.9789
vn -0.1370 -0.1054 -0.9849
vn -0.4586 0.0277 0.8882
vn -0.4032 -0.0632 0.9129
vn -0.0123 0.0208 0.9997
vn -0.0155 0.0157 0.9998
vn 0.3377 -0.0149 0.9411
vn 0.3649 0.0236 0.9308
vn -0.2212 -0.0000 0.9752
vn -0.2094 0.0410 0.9770
vn -0.2031 -0.0205 -0.9789
vn -0.2091 -0.0000 -0.9779
vn 0.4659 -0.0483 -0.8835
vn 0.3076 0.1001 -0.9462
vn 0.1387 -0.0697 -0.9879
vn -0.1387 0.0697 -0.9879
vn -0.2668 -0.0579 -0.9620
vn -0.4720 0.0544 -0.8799
vn -0.5532 -0.0193 -0.8328
vn 0.2113 -0.0000 -0.9774
vn 0.2498 -0.1417 -0.9579
vn 0.2562 0.0435 0.9657
vn 0.2450 -0.0000 0.9695
vn 0.9890 0.0600 0.1351
vn 0.9201 -0.0439 0.3893
vn 0.8865 0.0210 0.4623
vn 0.7150 -0.0295 0.6985
vn 0.6248 0.0548 0.7788
vn 0.4491 -0.0500 0.8921
vn 0.2203 0.0406 0.9746
vn 0.0942 -0.0504 0.9943
vn -0.1351 0.0600 0.9890
vn -0.3893 -0.0439 0.9201
vn -0.4623 0.0210 0.8865
vn -0.6985 -0.0295 0.7150
vn -0.7788 0.0548 0.6248
vn -0.8921 -0.0500 0.4491
vn -0.9746 0.0406 0.2203
vn -0.9943 -0.0504 0.0942
vn -0.9890 0.0600 -0.1351
vn -0.9201 -0.0439 -0.3893
vn -0.8865 0.0210 -0.4623
vn -0.7150 -0.0295 -0.6985
vn -0.6248 0.0548 -0.7788
vn -0.4491 -0.0500 -0.8921
vn -0.2203 0.0406 -0.9746
vn -0.0942 -0.0504 -0.9943
vn 0.1351 0.0600 -0.9890
vn 0.3893 -0.0439 -0.9201
vn 0.4623 0.0210 -0.8865
vn 0.6985 -0.0295 -0.7150
vn 0.7788 0.0548 -0.6248
vn 0.8921 -0.0500 -0.4491
vn 0.9746 0.0406 -0.2203
vn 0.9943 -0.0504 -0.0942
vn -0.9846 -0.0655 -0.1622
vn -0.9524 0.0618 -0.2986
vn -0.7985 -0.0354 -0.6009
vn -0.7918 -0.0492 -0.6088
vn -0.5086 0.0687 -0.8583
vn -0.3989 -0.0687 -0.9144
vn -0.0807 0.0338 -0.9962
vn 0.0054 -0.0422 -0.9991
vn 0.2210 0.0497 -0.9740
vn 0.4198 -0.0601 -0.9056
vn 0.5536 0.0601 -0.8306
vn 0.7416 -0.0700 -0.6672
vn 0.8599 0.0896 -0.5026
vn 0.9511 -0.0802 -0.2984
vn 0.9970 0.0590 -0.0496
vn 0.9966 -0.0350 0.0739
vn 0.9534 0.0350 0.2996
vn 0.9248 -0.0294 0.3793
vn 0.7913 0.0209 0.6110
vn 0.7699 -0.0094 0.6381
vn 0.5522 0.0103 0.8337
vn 0.5336 -0.0118 0.8457
vn 0.2178 0.0127 0.9759
vn 0.2083 0.0018 0.9781
vn -0.1181 -0.0143 0.9929
vn -0.1829 0.0526 0.9817
vn -0.4759 -0.0730 0.8764
vn -0.6043 0.0655 0.7941
vn -0.8060 -0.0509 0.5898
vn -0.8503 0.0286 0.5255
vn -0.9790 -0.0286 0.2020
vn -0.9909 0.0509 0.1248
vn 0.0001 1.0000 -0.0000
vn 0.0001 1.0000 -0.0001
vn 0.0025 1.0000 0.0015
vn -0.0029 1.0000 -0.0025
vn 0.0010 1.0000 -0.0002
vn 0.0004 1.0000 -0.0003
vn 0.0003 1.0000 0.0002
vn -0.0004 1.0000 0.0002
vn 0.0015 1.0000 -0.0000
vn -0.0002 1.0000 -0.0005
vn -0.0005 1.0000 0.0001
vn 0.0002 1.0000 0.0010
vn -0.0007 1.0000 -0.0043
vn -0.0009 1.0000 0.0006
vn 0.0007 1.0000 0.0004
vn -0.0002 1.0000 0.0001
vn 0.0001 1.0000 0.0001
vn 0.0005 1.0000 -0.0000
vn 0.0003 1.0000 0.0005
vn -0.0023 1.0000 0.0012
vn 0.0015 1.0000 -0.0074
vn -0.0006 1.0000 0.0027
vn 0.0014 1.0000 0.0012
vn 0.0004 1.0000 -0.0002
vn 0.0004 1.0000 -0.0000
vn -0.0012 1.0000 0.0013
vn -0.0003 1.0000 -0.0000
vn -0.9729 -0.0072 -0.2313
vn -0.9717 -0.0035 -0.2363
vn -0.9786 -0.0451 -0.2008
vn -0.9792 -0.0785 -0.1869
vn -0.9992 0.0332 -0.0225
vn -0.9948 -0.0056 0.1017
vn -0.9801 -0.0719 0.1852
vn -0.9730 -0.0060 0.2307
vn -0.9725 -0.0043 0.2330
vn -0.9945 0.0048 0.1047
vn -0.9979 0.0142 0.0628
vn -0.9951 -0.0083 -0.0988
vn 0.9719 -0.0065 -0.2355
vn 0.9971 -0.0078 -0.0758
vn 0.9931 0.0215 0.1149
vn 0.9980 0.0078 0.0629
vn 0.9716 -0.0039 0.2367
vn 0.9767 -0.0202 0.2138
vn 0.9776 -0.1013 0.1845
vn 0.9985 0.0507 -0.0223
vn 0.9790 -0.0809 -0.1869
vn 0.9748 -0.0152 -0.2227
vn 0.9319 0.0151 -0.3623
vn 0.7078 0.0024 -0.7064
vn 0.7898 0.0172 -0.6131
vn 0.7405 -0.0398 -0.6709
vn 0.6281 -0.0015 -0.7781
vn 0.5630 0.0041 -0.8264
vn 0.5103 -0.0000 -0.8600
vn 0.4454 -0.0170 -0.8952
vn 0.4045 0.0030 -0.9145
vn 0.5537 0.0001 -0.8327
vn 0.1740 0.0018 -0.9848
vn 0.1579 -0.0000 -0.9875
vn 0.0905 -0.0259 -0.9956
vn 0.0160 0.0037 -0.9999
vn 0.0867 0.0024 -0.9962
vn -0.1740 0.0036 -0.9847
vn -0.2092 -0.0003 -0.9779
vn -0.3042 -0.0380 -0.9518
vn -0.4045 0.0128 -0.9145
vn -0.1630 -0.0000 -0.9866
vn -0.5630 0.0061 -0.8264
vn -0.6141 -0.0015 -0.7892
vn -0.7187 -0.0627 -0.6925
vn -0.7898 0.0172 -0.6131
vn -0.7078 0.0024 -0.7064
vn -0.9319 0.0151 -0.3623
vn -0.9157 0.0140 0.4017
vn -0.7111 0.0024 0.7031
vn -0.7898 0.0169 0.6131
vn -0.7408 -0.0399 0.6706
vn -0.6281 -0.0015 0.7781
vn -0.5630 0.0041 0.8264
vn -0.5103 -0.0000 0.8600
vn -0.4454 -0.0170 0.8952
vn -0.4045 0.0030 0.9145
vn -0.5537 0.0001 0.8327
vn -0.1740 0.0018 0.9848
vn -0.1579 -0.0000 0.9875
vn -0.0905 -0.0259 0.9956
vn -0.0160 0.0037 0.9999
vn -0.0867 0.0024 0.9962
vn 0.1740 0.0036 0.9847
vn 0.2092 -0.0003 0.9779
vn 0.3042 -0.0380 0.9518
vn 0.4045 0.0128 0.9145
vn 0.1630 -0.0000 0.9866
vn 0.5630 0.0061 0.8264
vn 0.6141 -0.0015 0.7892
vn 0.7190 -0.0629 0.6921
vn 0.7898 0.0169 0.6131
vn 0.7111 0.0024 0.7031
vn 0.9157 0.0140 0.4017
vn 1.0000 -0.0000 -0.0001
vn 1.0000 0.0002 0.0002
vn 1.0000 -0.0003 0.0005
vn 1.0000 0.0001 -0.0002
vn -0.0000 -1.0000 -0.0008
vn 0.0033 -1.0000 -0.0002
vn -0.0000 -1.0000 0.0010
vn -0.0029 -1.0000 0.0004
vn -1.0000 -0.0003 0.0003
vn -1.0000 -0.0001 0.0006
vn 1.0000 -0.0009 0.0004
vn 1.0000 0.0016 -0.0013
vn 1.0000 -0.0009 0.0006
vn 1.0000 -0.0000 -0.0006
vn -0.0052 -1.0000 0.0001
vn -0.0004 -1.0000 -0.0009
vn -0.0004 -1.0000 0.0009
vn -0.0022 -1.0000 0.0006
vn -1.0000 -0.0000 0.0004
vn -1.0000 0.0003 0.0001
vn 1.0000 -0.0000 0.0001
vn 0.0008 -1.0000 -0.0018
vn -0.0073 -1.0000 -0.0035
vn 0.0086 -1.0000 0.0002
vn 0.0008 -1.0000 0.0018
vn -1.0000 -0.0009 0.0011
vn -1.0000 0.0007 -0.0008
vn 1.0000 -0.0014 -0.0001
vn 1.0000 -0.0001 -0.0009
vn 1.0000 -0.0001 0.0006
vn 1.0000 -0.0014 0.0009
vn 1.0000 -0.0006 -0.0001
vn -0.0008 -1.0000 0.0001
vn -0.0001 -1.0000 -0.0001
vn -0.0001 -1.0000 0.0001
vn 0.0271 -0.9996 0.0052
vn -1.0000 -0.0002 0.0008
vn -1.0000 -0.0007 0.0002
vn 1.0000 -0.0002 -0.0000
vn 1.0000 0.0006 -0.0009
vn -1.0000 -0.0014 0.0003
vn -1.0000 -0.0006 -0.0008
vn -1.0000 -0.0014 -0.0006
vn -1.0000 -0.0004 0.0007
vn 0.0054 -1.0000 0.0002
vn 0.0012 -1.0000 0.0010
vn 0.0231 -0.9997 -0.0034
vn 0.0001 -1.0000 -0.0001
vn -0.0019 1.0000 -0.0015
vn -0.0078 1.0000 -0.0001
vn -0.0004 1.0000 -0.0008
vn -0.0038 1.0000 -0.0000
vn -0.0018 1.0000 0.0019
vn -0.0000 1.0000 0.0015
vn -0.0099 0.9999 0.0027
vn 0.0001 1.0000 0.0002
vn -0.0048 1.0000 0.0022
vn 0.0011 1.0000 0.0008
vn -0.0358 0.9993 -0.0086
vn 0.0001 1.0000 -0.0002
vn 0.0019 1.0000 0.0003
vn -0.0000 1.0000 -0.0019
vn -0.0287 0.9996 -0.0085
vn -0.0016 1.0000 0.0012
vn 0.0018 1.0000 0.0020
vn 0.0107 0.9999 0.0030
vn -1.0000 -0.0000 -0.0004
vn -1.0000 0.0004 0.0001
vn -1.0000 -0.0009 -0.0001
vn -1.0000 -0.0006 -0.0006
vn -1.0000 -0.0002 0.0001
vn -1.0000 0.0001 -0.0002
vn 1.0000 -0.0002 -0.0001
vn 1.0000 0.0008 0.0010
vn 0.6601 -0.4872 -0.5718
vn 0.6314 -0.4350 -0.6419
vn 0.5286 -0.4760 -0.7029
vn -0.3148 0.0030 -0.9492
vn -0.3280 -0.0003 -0.9447
vn 0.5194 -0.4657 0.7165
vn 0.6349 -0.4246 0.6455
vn 0.6656 -0.4866 0.5659
vn -0.3306 -0.0033 0.9438
vn -0.3055 0.0029 0.9522
vn -0.6320 -0.4332 -0.6426
vn -0.6606 -0.4796 -0.5775
vn -0.5431 -0.4736 -0.6934
vn -0.9226 -0.0009 0.3856
vn -0.9165 0.0026 0.4000
vn -0.6689 -0.4867 0.5619
vn -0.6327 -0.4313 0.6432
vn -0.5403 -0.4757 0.6941
vn 0.2912 0.0027 0.9567
vn 0.3211 -0.0048 0.9470
vn 0.0064 -0.0002 -1.0000
vn 0.0155 0.0007 0.9999
vn 1.0000 0.0051 0.0010
vn 1.0000 0.0002 -0.0007
vn 1.0000 -0.0001 -0.0012
vn 1.0000 -0.0001 -0.0011
vn 1.0000 -0.0003 -0.0009
vn -0.0002 -0.0019 -1.0000
vn -0.0026 -0.0037 1.0000
vn 0.0226 -0.0112 0.9997
vn 0.0075 -0.0023 -1.0000
vn -0.0030 0.0003 -1.0000
vn -1.0000 0.0004 0.0004
vn -1.0000 -0.0000 0.0012
vn -1.0000 0.0005 0.0007
vn -1.0000 0.0006 -0.0009
vn -1.0000 0.0001 -0.0014
vn -1.0000 0.0005 -0.0006
vn 0.0022 -0.0062 1.0000
vn -0.6996 -0.0107 -0.7145
vn -0.7160 0.0094 -0.6980
vn 0.3264 0.0004 -0.9452
vn 0.3164 0.0031 -0.9486
vn -0.7160 0.0094 0.6980
vn -0.6996 -0.0107 0.7145
vn -0.9178 -0.0009 -0.3970
vn -0.9175 -0.0011 -0.3978
vn 0.9186 -0.0015 0.3952
vn 0.9194 -0.0010 0.3933
vn 0.7160 0.0094 -0.6980
vn 0.6996 -0.0107 -0.7145
vn 0.9181 -0.0011 -0.3963
vn 0.9171 -0.0016 -0.3986
vn 0.6996 -0.0107 0.7145
vn 0.7160 0.0094 0.6980
vn 0.9559 -0.1332 0.2617
vn 0.9159 -0.1678 0.3646
vn 0.6509 -0.3084 0.6936
vn 0.9430 -0.0437 0.3298
vn 0.8588 -0.0764 0.5066
vn 0.8589 -0.0763 0.5064
vn 0.8634 -0.1463 0.4829
vn 0.7540 -0.1426 0.6412
vn 0.6868 -0.1866 0.7025
vn 0.4367 -0.1237 0.8911
vn 0.3187 -0.0592 0.9460
vn -0.3022 -0.1229 0.9453
vn -0.2232 -0.0687 0.9724
vn -0.3034 -0.0685 0.9504
vn -0.2301 -0.2830 0.9311
vn -0.0767 -0.3104 0.9475
vn -0.3712 -0.0388 0.9277
vn -0.4208 0.0059 0.9072
vn -0.5380 -0.0769 0.8394
vn -0.9395 -0.1155 0.3224
vn -0.9608 -0.0622 0.2700
vn -0.9951 -0.0986 -0.0053
vn -0.8895 -0.1141 -0.4424
vn -0.8488 -0.0617 -0.5251
vn -0.9656 -0.0595 -0.2530
vn -0.3055 -0.0552 -0.9506
vn -0.1878 -0.0517 -0.9808
vn -0.1340 -0.0281 -0.9906
vn -0.0924 -0.0513 -0.9944
vn -0.0178 -0.0633 -0.9978
vn -0.2854 -0.2792 -0.9169
vn -0.4675 -0.3145 -0.8262
vn -0.5469 -0.2722 -0.7917
vn -0.7572 -0.2947 -0.5830
vn -0.7732 -0.3221 -0.5463
vn -0.9096 -0.2705 -0.3154
vn -0.9196 -0.3466 -0.1849
vn -0.9629 -0.2683 -0.0298
vn -0.9357 -0.3097 0.1692
vn -0.8177 -0.2974 0.4929
vn -0.7889 -0.3213 0.5239
vn -0.6882 -0.2819 0.6686
vn -0.5618 -0.3113 0.7665
vn -0.5284 -0.2932 0.7968
vn 0.1162 -0.0332 -0.9927
vn -0.0679 -0.2834 -0.9566
vn 0.1129 -0.0353 -0.9930
vn 0.1756 -0.0541 -0.9830
vn 0.3230 -0.0381 -0.9456
vn 0.2935 -0.0132 -0.9559
vn 0.4086 -0.0610 -0.9107
vn 0.8652 -0.3158 -0.3896
vn 0.9369 -0.2718 -0.2198
vn 0.9519 -0.3058 0.0186
vn 0.9527 -0.3030 0.0237
vn 0.9025 -0.2794 0.3277
vn 0.8501 -0.3468 0.3963
vn 0.5966 -0.1293 -0.7920
vn 0.6850 -0.2028 -0.6998
vn 0.6867 -0.2064 -0.6970
vn 0.7711 -0.2700 -0.5766
vn 0.7684 -0.2362 -0.5948
vn 0.8539 -0.2930 -0.4301
vn 0.7016 -0.1646 -0.6933
vn 0.8541 -0.2001 -0.4800
vn 0.8815 -0.2339 -0.4101
vn 0.7482 -0.1370 -0.6492
vn 0.8213 -0.1515 -0.5501
vn 0.8598 -0.1796 -0.4780
vn 0.9454 -0.2206 -0.2400
vn 0.9633 -0.0637 -0.2608
vn 0.9677 -0.0570 -0.2457
vn 0.9108 -0.0790 -0.4052
vn 0.8747 -0.0569 -0.4814
vn 0.8374 -0.0728 -0.5418
vn 0.9856 -0.1219 -0.1174
vn 0.9898 -0.1420 0.0093
vn 0.9585 -0.2176 0.1841
vn 0.9884 -0.1271 0.0826
vn 0.5520 -0.1883 -0.8123
vn 0.4314 -0.2434 -0.8687
vn 0.3939 -0.2227 -0.8918
vn 0.3111 -0.2032 -0.9284
vn 0.5805 -0.2823 -0.7638
vn 0.3428 -0.3089 -0.8872
vn 0.3267 -0.2972 -0.8972
vn 0.1744 -0.2195 0.9599
vn 0.1994 -0.2119 0.9567
vn 0.3239 -0.2040 0.9238
vn 0.3267 -0.1594 0.9316
vn 0.1744 -0.2896 0.9411
vn 0.1719 -0.2906 0.9413
vn -0.7151 -0.2187 -0.6639
vn -0.8518 -0.2135 -0.4783
vn -0.9077 -0.2189 -0.3580
vn -0.9516 -0.2008 0.2327
vn -0.9284 -0.2276 0.2938
vn -0.8672 -0.2078 0.4526
vn -0.8286 -0.2325 0.5093
vn -0.7032 -0.2220 0.6755
vn -0.6921 -0.2143 0.6892
vn -0.1127 -0.2145 -0.9702
vn -0.5558 -0.2498 -0.7929
vn -0.7691 -0.2476 -0.5891
vn -0.9165 -0.2518 -0.3108
vn -0.9693 -0.2406 -0.0514
vn -0.5696 -0.2342 0.7879
vn -0.4058 -0.2835 0.8689
vn -0.3242 -0.3024 0.8963
vn -0.0637 -0.2284 -0.9715
vn 0.0352 -0.2116 -0.9767
vn 0.0091 -0.2088 0.9779
vn -0.1284 -0.2381 0.9627
vn -0.1320 -0.1345 0.9821
vn 0.1155 -0.1271 -0.9851
vn 0.1013 -0.1295 -0.9864
vn 0.2139 -0.2063 -0.9548
vn 0.1324 -0.2092 0.9689
vn 0.1356 -0.1585 0.9780
vn 0.0189 -0.1251 0.9920
vn 0.1098 -0.0951 0.9894
vn -0.3042 -0.1235 -0.9446
vn -0.2735 -0.1298 -0.9531
vn -0.2959 -0.2179 -0.9300
vn -0.2381 -0.2072 -0.9489
vn -0.1140 -0.1248 -0.9856
vn -0.0920 -0.1216 -0.9883
vn -0.2157 -0.2168 0.9521
vn -0.2667 -0.1302 0.9549
vn 0.3143 -0.1326 -0.9400
vn 0.3790 -0.2187 0.8992
vn 0.3859 -0.2166 0.8968
vn 0.2250 -0.1315 0.9654
vn 0.3179 -0.0961 0.9432
vn -0.4501 -0.2275 0.8635
vn -0.2662 -0.2095 0.9409
vn -0.4176 -0.2140 0.8831
vn -0.4484 -0.2081 -0.8693
vn -0.5174 -0.2193 -0.8271
vn -0.2695 -0.2265 -0.9360
vn -0.3699 -0.0425 -0.9281
vn -0.5695 -0.0530 -0.8203
vn 0.9680 -0.2468 0.0465
vn -0.9223 -0.2662 0.2803
vn -0.5220 -0.0661 -0.8504
vn 0.9599 -0.0726 0.2708
vn 0.8808 -0.1627 0.4447
vn 0.8356 -0.2358 0.4962
vn 0.7493 -0.2687 0.6053
vn 0.9308 -0.2271 0.2864
vn 0.9757 -0.1453 0.1638
vn 0.9046 -0.2628 0.3356
vn 0.7611 -0.2524 0.5975
vn 0.5794 -0.1592 0.7993
vn 0.5944 -0.1893 0.7816
vn 0.6379 -0.2022 0.7431
vn 0.5725 -0.2819 0.7699
vn 0.4538 -0.0261 0.8907
vn 0.3850 -0.0587 0.9211
vn 0.5233 -0.0762 0.8487
vn 0.4250 -0.3021 0.8533
vn 0.3761 -0.2842 0.8819
vn 0.1699 -0.0579 0.9838
vn 0.2277 -0.0205 0.9735
vn 0.1100 -0.0723 0.9913
vn 0.0034 -0.0555 0.9985
vn -0.0637 -0.0192 0.9978
vn -0.0266 -0.2916 0.9562
vn -0.0618 -0.1245 0.9903
vn -0.0915 -0.2211 0.9710
vn -0.1910 -0.2265 0.9551
vn -0.0754 -0.0083 0.9971
vn -0.5527 -0.1239 0.8241
vn -0.3574 -0.1735 0.9177
vn -0.6100 -0.1475 0.7785
vn -0.7587 -0.1345 0.6375
vn -0.8704 -0.1494 0.4691
vn -0.8663 -0.1463 0.4776
vn -0.9594 -0.1526 0.2373
vn -0.8352 -0.1596 -0.5263
vn -0.7426 -0.1486 -0.6530
vn -0.7225 -0.1601 -0.6726
vn -0.6915 -0.1739 0.7011
vn -0.9845 -0.1548 -0.0819
vn -0.9604 -0.1534 -0.2324
vn -0.9359 -0.1676 -0.3098
vn -0.5024 -0.2097 0.8388
vn -0.8751 -0.0486 0.4814
vn -0.9444 -0.0843 0.3179
vn -0.8446 -0.0762 0.5299
vn -0.9765 -0.2138 -0.0278
vn -0.9539 -0.0461 -0.2965
vn -0.8892 -0.0899 -0.4486
vn -0.6146 -0.1418 -0.7760
vn -0.5400 -0.1609 -0.8262
vn -0.4271 -0.1336 -0.8943
vn -0.3554 -0.0351 -0.9341
vn -0.1503 -0.3082 -0.9394
vn 0.1428 -0.2258 -0.9637
vn 0.1002 -0.2143 -0.9716
vn 0.1494 -0.2914 -0.9448
vn 0.1356 -0.2852 -0.9488
vn 0.2884 -0.1293 -0.9487
vn 0.5013 -0.0567 -0.8634
vn 0.5300 -0.0779 -0.8444
vn 0.4448 -0.1240 -0.8870
vn 0.5351 -0.1459 -0.8321
vn 0.5807 -0.2836 -0.7631
vn 0.6296 -0.3218 -0.7071
vn 0.9111 -0.1491 -0.3843
vn 0.9692 -0.1432 -0.2004
vn 0.9573 -0.1673 -0.2359
vn 0.9567 -0.2006 -0.2109
vn 0.9772 -0.2060 -0.0514
vn 0.4240 -0.2203 -0.8784
s 0
usemtl MatteBlack
f 1//1 2//1 3//1
f 3//1 2//1 4//1
f 2//2 5//2 4//2
f 4//2 5//2 6//2
f 7//3 1//3 8//3
f 8//3 1//3 3//3
f 8//4 3//4 6//4
f 6//4 3//4 4//4
f 9//5 10//5 5//5
f 5//5 10//5 11//5
f 5//5 11//5 7//5
f 7//5 11//5 12//5
f 13//5 14//5 9//5
f 9//5 14//5 15//5
f 9//5 15//5 10//5
f 10//5 15//5 16//5
f 8//5 6//5 7//5
f 7//5 6//5 5//5
f 40//4 17//4 2//4
f 40//4 2//4 18//4
f 18//4 2//4 1//4
f 18//4 1//4 19//4
f 19//4 1//4 12//4
f 19//4 12//4 20//4
f 20//4 12//4 21//4
f 21//4 12//4 22//4
f 21//4 22//4 23//4
f 23//4 22//4 24//4
f 24//4 22//4 25//4
f 25//4 22//4 26//4
f 25//4 26//4 27//4
f 27//4 26//4 28//4
f 27//4 28//4 29//4
f 27//4 29//4 30//4
f 30//4 29//4 31//4
f 30//4 31//4 32//4
f 32//4 31//4 33//4
f 32//4 33//4 34//4
f 34//4 33//4 35//4
f 35//4 33//4 16//4
f 35//4 16//4 36//4
f 36//4 16//4 37//4
f 37//4 16//4 38//4
f 38//4 16//4 39//4
f 38//4 39//4 40//4
f 40//4 39//4 17//4
f 9//4 5//4 17//4
f 17//4 5//4 2//4
f 1//4 7//4 12//4
f 22//4 41//4 26//4
f 28//4 42//4 29//4
f 29//4 42//4 43//4
f 31//4 44//4 33//4
f 16//4 15//4 39//4
f 44//2 31//2 45//2
f 45//2 31//2 46//2
f 31//5 29//5 46//5
f 46//5 29//5 47//5
f 29//3 43//3 47//3
f 47//3 43//3 48//3
f 47//4 48//4 46//4
f 46//4 48//4 45//4
f 10//6 49//6 11//6
f 50//6 51//6 10//6
f 52//6 53//6 50//6
f 11//6 54//6 52//6
f 11//6 49//6 55//6
f 55//6 56//6 11//6
f 11//6 56//6 57//6
f 57//6 54//6 11//6
f 52//6 54//6 58//6
f 58//6 59//6 52//6
f 52//6 59//6 60//6
f 60//6 53//6 52//6
f 50//6 53//6 61//6
f 61//6 62//6 50//6
f 50//6 62//6 63//6
f 63//6 51//6 50//6
f 10//6 51//6 64//6
f 64//6 65//6 10//6
f 10//6 65//6 66//6
f 66//6 49//6 10//6
f 17//1 39//1 67//1
f 67//1 39//1 68//1
f 39//2 15//2 68//2
f 68//2 15//2 14//2
f 9//3 17//3 13//3
f 13//3 17//3 67//3
f 13//4 67//4 14//4
f 14//4 67//4 68//4
f 26//3 41//3 69//3
f 69//3 41//3 70//3
f 28//5 26//5 71//5
f 71//5 26//5 69//5
f 42//2 28//2 72//2
f 72//2 28//2 71//2
f 69//4 70//4 71//4
f 71//4 70//4 72//4
f 40//7 49//7 66//7
f 40//8 66//8 38//8
f 38//9 66//9 65//9
f 38//10 65//10 37//10
f 37//11 65//11 64//11
f 37//12 64//12 36//12
f 36//13 64//13 51//13
f 36//14 51//14 35//14
f 35//15 51//15 63//15
f 35//16 63//16 34//16
f 34//17 63//17 62//17
f 34//18 62//18 32//18
f 32//19 62//19 61//19
f 32//20 61//20 30//20
f 30//21 61//21 53//21
f 30//22 53//22 27//22
f 27//23 53//23 60//23
f 27//24 60//24 25//24
f 25//25 60//25 59//25
f 25//26 59//26 24//26
f 24//27 59//27 58//27
f 24//28 58//28 23//28
f 23//29 58//29 54//29
f 23//30 54//30 21//30
f 21//31 54//31 57//31
f 21//32 57//32 20//32
f 20//33 57//33 56//33
f 20//34 56//34 19//34
f 19//35 56//35 55//35
f 19//36 55//36 18//36
f 18//37 55//37 49//37
f 18//38 49//38 40//38
f 50//1 43//1 52//1
f 52//1 43//1 42//1
f 52//1 42//1 41//1
f 41//1 42//1 70//1
f 70//1 42//1 72//1
f 33//1 44//1 50//1
f 50//1 44//1 43//1
f 45//1 48//1 44//1
f 44//1 48//1 43//1
f 41//1 22//1 52//1
f 11//3 52//3 12//3
f 12//3 52//3 22//3
f 50//2 10//2 33//2
f 33//2 10//2 16//2
f 74//39 73//39 75//39
f 74//40 75//40 76//40
f 76//41 75//41 77//41
f 77//42 75//42 78//42
f 77//43 78//43 79//43
f 79//44 78//44 80//44
f 79//45 80//45 81//45
f 81//46 80//46 82//46
f 81//47 82//47 83//47
f 83//48 82//48 84//48
f 83//49 84//49 85//49
f 85//50 84//50 86//50
f 86//51 84//51 87//51
f 86//52 87//52 88//52
f 88//53 87//53 89//53
f 89//54 87//54 90//54
f 89//55 90//55 91//55
f 91//56 90//56 92//56
f 91//57 92//57 93//57
f 93//58 92//58 94//58
f 93//59 94//59 95//59
f 93//60 95//60 96//60
f 96//61 95//61 97//61
f 96//62 97//62 98//62
f 98//63 97//63 99//63
f 98//64 99//64 100//64
f 100//65 99//65 101//65
f 100//66 101//66 102//66
f 102//67 101//67 103//67
f 102//68 103//68 104//68
f 104//69 103//69 105//69
f 104//70 105//70 106//70
f 106//71 105//71 73//71
f 106//72 73//72 74//72
f 80//73 107//73 82//73
f 84//74 108//74 87//74
f 124//75 88//75 109//75
f 109//76 89//76 110//76
f 110//77 89//77 91//77
f 110//78 91//78 93//78
f 110//79 93//79 111//79
f 111//80 93//80 112//80
f 112//81 93//81 96//81
f 113//82 98//82 114//82
f 114//83 98//83 100//83
f 114//84 102//84 115//84
f 115//85 102//85 104//85
f 115//86 104//86 116//86
f 116//87 104//87 106//87
f 116//88 106//88 117//88
f 117//89 74//89 118//89
f 118//90 74//90 76//90
f 118//91 76//91 77//91
f 118//92 77//92 119//92
f 119//93 77//93 120//93
f 120//94 77//94 79//94
f 121//95 81//95 122//95
f 122//96 83//96 123//96
f 123//97 85//97 124//97
f 124//98 85//98 86//98
f 124//99 86//99 88//99
f 74//100 117//100 106//100
f 102//101 114//101 100//101
f 98//102 113//102 112//102
f 98//103 112//103 96//103
f 89//104 109//104 88//104
f 85//105 123//105 83//105
f 83//106 122//106 81//106
f 81//107 121//107 120//107
f 81//108 120//108 79//108
f 125//109 126//109 128//109
f 128//110 127//110 125//110
f 128//111 130//111 127//111
f 131//112 130//112 129//112
f 131//113 129//113 132//113
f 130//114 131//114 127//114
f 129//115 130//115 133//115
f 133//116 130//116 128//116
f 133//117 128//117 134//117
f 133//118 134//118 135//118
f 135//119 134//119 139//119
f 135//120 139//120 141//120
f 135//121 141//121 136//121
f 136//122 141//122 137//122
f 136//123 137//123 147//123
f 134//124 128//124 138//124
f 139//125 142//125 141//125
f 139//126 138//126 142//126
f 134//127 138//127 139//127
f 128//128 126//128 138//128
f 138//129 126//129 140//129
f 138//130 140//130 142//130
f 142//131 143//131 141//131
f 127//132 131//132 125//132
f 125//133 131//133 144//133
f 144//134 131//134 132//134
f 145//135 143//135 142//135
f 145//136 142//136 140//136
f 137//137 141//137 143//137
f 137//138 143//138 146//138
f 147//139 137//139 146//139
f 143//140 145//140 146//140
f 146//141 145//141 148//141
f 146//142 148//142 147//142
f 125//6 144//6 149//6
f 149//6 144//6 119//6
f 149//6 119//6 120//6
f 150//6 118//6 144//6
f 144//6 118//6 119//6
f 118//6 150//6 151//6
f 118//6 151//6 117//6
f 117//6 151//6 152//6
f 151//6 153//6 152//6
f 152//6 153//6 154//6
f 117//6 152//6 155//6
f 117//6 155//6 156//6
f 117//6 156//6 116//6
f 116//6 156//6 157//6
f 155//6 158//6 156//6
f 156//6 158//6 159//6
f 160//6 161//6 157//6
f 157//6 161//6 162//6
f 157//6 162//6 116//6
f 116//6 162//6 115//6
f 115//6 162//6 163//6
f 115//6 163//6 164//6
f 115//6 164//6 114//6
f 114//6 164//6 165//6
f 114//6 165//6 113//6
f 113//6 165//6 166//6
f 113//6 166//6 112//6
f 112//6 166//6 167//6
f 112//6 167//6 111//6
f 111//6 167//6 110//6
f 110//6 167//6 168//6
f 110//6 168//6 169//6
f 110//6 169//6 109//6
f 109//6 169//6 170//6
f 109//6 170//6 171//6
f 109//6 171//6 172//6
f 109//6 172//6 124//6
f 124//6 172//6 173//6
f 170//6 169//6 174//6
f 174//6 169//6 175//6
f 174//6 176//6 170//6
f 171//6 177//6 172//6
f 172//6 177//6 178//6
f 179//6 180//6 173//6
f 173//6 180//6 181//6
f 173//6 181//6 124//6
f 124//6 181//6 182//6
f 124//6 182//6 123//6
f 123//6 182//6 148//6
f 123//6 148//6 183//6
f 123//6 183//6 122//6
f 122//6 183//6 121//6
f 121//6 183//6 149//6
f 121//6 149//6 120//6
f 148//6 145//6 183//6
f 186//143 185//143 187//143
f 186//144 187//144 197//144
f 197//145 187//145 184//145
f 187//146 188//146 184//146
f 185//147 188//147 187//147
f 189//148 185//148 186//148
f 189//149 186//149 197//149
f 189//150 197//150 190//150
f 189//151 190//151 191//151
f 191//152 190//152 192//152
f 191//153 192//153 193//153
f 191//154 193//154 194//154
f 194//155 193//155 199//155
f 195//156 165//156 196//156
f 195//157 196//157 192//157
f 192//158 190//158 195//158
f 195//159 190//159 197//159
f 193//160 192//160 196//160
f 193//161 196//161 198//161
f 199//162 193//162 198//162
f 196//163 165//163 198//163
f 198//164 165//164 164//164
f 198//165 164//165 199//165
f 165//166 195//166 166//166
f 166//167 195//167 197//167
f 166//168 197//168 184//168
f 184//169 188//169 166//169
f 166//170 188//170 167//170
f 202//171 200//171 201//171
f 200//172 202//172 203//172
f 203//173 202//173 204//173
f 206//174 205//174 207//174
f 207//6 205//6 208//6
f 207//175 208//175 209//175
f 202//176 209//176 204//176
f 204//176 209//176 210//176
f 204//6 210//6 211//6
f 211//6 210//6 212//6
f 212//6 210//6 213//6
f 212//6 213//6 214//6
f 214//6 213//6 215//6
f 214//6 215//6 216//6
f 216//6 215//6 217//6
f 217//6 215//6 218//6
f 217//6 218//6 219//6
f 218//6 220//6 221//6
f 221//6 220//6 222//6
f 221//6 222//6 223//6
f 223//6 222//6 224//6
f 223//6 224//6 225//6
f 225//6 224//6 226//6
f 225//6 226//6 227//6
f 227//6 226//6 228//6
f 229//6 228//6 230//6
f 230//6 228//6 231//6
f 231//6 228//6 232//6
f 231//6 232//6 233//6
f 233//6 232//6 234//6
f 233//6 234//6 235//6
f 233//6 235//6 236//6
f 236//6 235//6 237//6
f 238//6 237//6 239//6
f 240//6 239//6 241//6
f 240//6 241//6 206//6
f 206//6 241//6 205//6
f 228//6 229//6 227//6
f 238//177 242//177 243//177
f 242//178 238//178 244//178
f 244//179 238//179 239//179
f 229//180 245//180 246//180
f 245//181 229//181 247//181
f 247//182 229//182 230//182
f 219//183 248//183 249//183
f 248//184 219//184 250//184
f 250//185 219//185 218//185
f 249//186 251//186 219//186
f 219//187 251//187 217//187
f 238//188 243//188 237//188
f 237//189 243//189 252//189
f 237//190 252//190 236//190
f 236//191 252//191 253//191
f 236//192 253//192 254//192
f 236//193 254//193 233//193
f 233//194 254//194 255//194
f 233//195 255//195 256//195
f 233//196 256//196 231//196
f 231//197 256//197 247//197
f 231//198 247//198 230//198
f 246//199 257//199 229//199
f 229//200 257//200 227//200
f 227//201 257//201 225//201
f 225//202 257//202 258//202
f 225//203 258//203 259//203
f 225//204 259//204 223//204
f 223//205 259//205 260//205
f 223//206 260//206 221//206
f 221//207 260//207 250//207
f 221//208 250//208 218//208
f 212//209 261//209 262//209
f 212//210 262//210 211//210
f 211//211 262//211 203//211
f 211//212 203//212 204//212
f 201//213 263//213 202//213
f 202//214 263//214 209//214
f 209//215 263//215 207//215
f 207//216 263//216 264//216
f 207//217 264//217 265//217
f 207//218 265//218 206//218
f 206//219 265//219 266//219
f 206//220 266//220 267//220
f 206//221 267//221 240//221
f 240//222 267//222 244//222
f 240//223 244//223 239//223
f 217//224 251//224 268//224
f 217//225 268//225 216//225
f 216//226 268//226 214//226
f 214//227 268//227 269//227
f 214//228 269//228 261//228
f 214//229 261//229 212//229
f 270//4 271//4 160//4
f 160//4 271//4 159//4
f 153//230 272//230 273//230
f 273//231 272//231 274//231
f 161//1 160//1 275//1
f 275//1 160//1 159//1
f 275//1 159//1 273//1
f 273//1 159//1 158//1
f 273//1 158//1 154//1
f 154//1 153//1 273//1
f 276//6 275//6 274//6
f 274//6 275//6 273//6
f 154//4 158//4 277//4
f 277//4 158//4 278//4
f 175//232 279//232 280//232
f 280//233 279//233 281//233
f 175//234 280//234 282//234
f 175//235 282//235 174//235
f 174//5 282//5 176//5
f 176//5 282//5 177//5
f 177//5 282//5 283//5
f 177//5 283//5 178//5
f 178//5 283//5 179//5
f 179//5 283//5 180//5
f 180//236 283//236 279//236
f 279//237 283//237 281//237
f 281//6 283//6 280//6
f 280//6 283//6 282//6
f 176//4 177//4 284//4
f 284//4 177//4 285//4
f 284//238 285//238 175//238
f 175//239 285//239 279//239
f 279//4 285//4 286//4
f 279//4 286//4 287//4
f 287//4 286//4 179//4
f 179//4 286//4 178//4
f 125//240 149//240 126//240
f 126//241 149//241 288//241
f 140//242 289//242 145//242
f 145//243 289//243 183//243
f 149//2 183//2 288//2
f 288//2 183//2 289//2
f 288//6 289//6 126//6
f 126//6 289//6 140//6
f 290//244 291//244 292//244
f 293//245 307//245 294//245
f 295//246 296//246 297//246
f 299//247 300//247 298//247
f 311//248 303//248 301//248
f 304//249 305//249 306//249
f 307//250 293//250 308//250
f 292//251 291//251 309//251
f 298//252 300//252 310//252
f 301//253 302//253 311//253
f 312//254 296//254 295//254
f 306//255 305//255 313//255
f 276//2 305//2 161//2
f 305//256 304//256 161//256
f 161//257 304//257 162//257
f 161//2 275//2 276//2
f 271//258 302//258 159//258
f 159//258 302//258 156//258
f 156//259 302//259 301//259
f 277//260 312//260 154//260
f 312//261 295//261 154//261
f 154//262 295//262 152//262
f 175//263 298//263 310//263
f 175//264 310//264 284//264
f 284//265 310//265 176//265
f 310//266 300//266 176//266
f 176//267 300//267 170//267
f 285//1 307//1 286//1
f 286//1 307//1 308//1
f 286//268 308//268 178//268
f 178//268 308//268 172//268
f 172//269 308//269 293//269
f 173//270 292//270 179//270
f 179//271 292//271 309//271
f 179//271 309//271 287//271
f 171//272 307//272 177//272
f 177//272 307//272 285//272
f 171//272 294//272 307//272
f 241//273 293//273 205//273
f 205//274 293//274 294//274
f 205//275 294//275 170//275
f 241//276 173//276 172//276
f 241//277 172//277 293//277
f 241//278 292//278 173//278
f 292//279 241//279 290//279
f 290//280 241//280 239//280
f 290//281 239//281 181//281
f 181//282 239//282 182//282
f 182//283 239//283 148//283
f 148//284 239//284 147//284
f 147//285 239//285 237//285
f 147//286 237//286 235//286
f 147//287 235//287 136//287
f 136//288 235//288 135//288
f 135//289 235//289 234//289
f 135//290 234//290 133//290
f 133//291 234//291 232//291
f 133//292 232//292 129//292
f 129//293 232//293 228//293
f 129//294 228//294 132//294
f 132//295 228//295 150//295
f 132//296 150//296 144//296
f 150//297 228//297 226//297
f 150//298 226//298 151//298
f 151//299 226//299 297//299
f 297//300 226//300 224//300
f 297//301 224//301 295//301
f 295//302 224//302 152//302
f 152//303 224//303 303//303
f 152//304 303//304 155//304
f 303//305 224//305 301//305
f 301//306 224//306 222//306
f 301//307 222//307 156//307
f 156//308 222//308 157//308
f 157//309 222//309 306//309
f 306//310 222//310 304//310
f 304//311 222//311 220//311
f 304//312 220//312 162//312
f 162//313 220//313 163//313
f 163//314 220//314 199//314
f 163//315 199//315 164//315
f 220//316 218//316 199//316
f 199//317 218//317 215//317
f 199//318 215//318 194//318
f 194//319 215//319 191//319
f 191//320 215//320 213//320
f 191//321 213//321 189//321
f 189//322 213//322 210//322
f 189//323 210//323 185//323
f 185//324 210//324 209//324
f 185//325 209//325 188//325
f 188//326 209//326 167//326
f 167//327 209//327 168//327
f 168//328 209//328 208//328
f 168//329 208//329 169//329
f 169//330 208//330 299//330
f 299//331 208//331 205//331
f 299//332 205//332 300//332
f 300//333 205//333 170//333
f 294//334 171//334 170//334
f 311//335 158//335 155//335
f 311//335 155//335 303//335
f 311//335 278//335 158//335
f 278//336 311//336 271//336
f 271//337 311//337 302//337
f 297//338 296//338 151//338
f 151//339 296//339 153//339
f 153//340 296//340 272//340
f 312//5 277//5 296//5
f 296//341 277//341 272//341
f 272//5 277//5 274//5
f 274//342 277//342 278//342
f 274//343 278//343 271//343
f 274//5 271//5 276//5
f 276//5 271//5 270//5
f 276//5 270//5 305//5
f 305//5 270//5 313//5
f 169//344 299//344 298//344
f 169//345 298//345 175//345
f 157//265 306//265 313//265
f 157//346 313//346 160//346
f 160//266 313//266 270//266
f 287//347 309//347 279//347
f 279//348 309//348 291//348
f 181//349 291//349 290//349
f 181//350 180//350 291//350
f 291//351 180//351 279//351
f 87//352 314//352 90//352
f 90//353 314//353 315//353
f 90//354 315//354 92//354
f 92//355 315//355 94//355
f 94//356 315//356 316//356
f 94//357 316//357 95//357
f 95//358 316//358 317//358
f 95//359 317//359 318//359
f 95//360 318//360 97//360
f 97//361 318//361 319//361
f 97//362 319//362 99//362
f 99//363 319//363 101//363
f 101//364 319//364 320//364
f 101//365 320//365 103//365
f 103//366 320//366 321//366
f 103//367 321//367 105//367
f 105//368 321//368 322//368
f 105//369 322//369 73//369
f 73//370 322//370 323//370
f 73//371 323//371 75//371
f 75//372 323//372 324//372
f 75//373 324//373 78//373
f 78//374 324//374 325//374
f 78//375 325//375 326//375
f 78//376 326//376 80//376
f 80//377 326//377 327//377
f 80//378 327//378 107//378
f 107//379 327//379 328//379
f 107//380 328//380 82//380
f 82//381 328//381 329//381
f 82//382 329//382 84//382
f 84//383 329//383 108//383
f 108//384 329//384 330//384
f 108//385 330//385 87//385
f 87//386 330//386 314//386
f 331//387 332//387 333//387
f 333//388 332//388 334//388
f 335//389 331//389 336//389
f 336//390 331//390 333//390
f 336//391 333//391 337//391
f 337//392 333//392 334//392
f 339//393 340//393 338//393
f 338//394 340//394 341//394
f 342//395 338//395 341//395
f 342//396 341//396 343//396
f 343//397 341//397 344//397
f 344//398 341//398 340//398
f 346//399 347//399 345//399
f 345//400 347//400 348//400
f 349//401 345//401 350//401
f 350//402 345//402 348//402
f 350//403 348//403 351//403
f 351//404 348//404 347//404
f 352//405 353//405 354//405
f 354//406 353//406 355//406
f 356//407 353//407 352//407
f 356//408 352//408 357//408
f 357//409 352//409 354//409
f 357//410 354//410 358//410
f 358//411 354//411 359//411
f 359//412 354//412 355//412
f 360//413 359//413 355//413
f 360//414 355//414 361//414
f 361//415 355//415 353//415
f 361//416 353//416 362//416
f 362//417 353//417 356//417
f 362//418 356//418 363//418
f 362//419 363//419 364//419
f 364//420 363//420 365//420
f 364//421 365//421 366//421
f 366//422 365//422 367//422
f 366//423 367//423 368//423
f 368//424 367//424 337//424
f 368//425 337//425 334//425
f 368//426 334//426 369//426
f 369//427 334//427 332//427
f 369//428 332//428 370//428
f 370//429 332//429 371//429
f 370//430 371//430 372//430
f 370//431 372//431 373//431
f 373//432 372//432 374//432
f 373//433 374//433 375//433
f 375//434 374//434 376//434
f 375//435 376//435 377//435
f 377//436 376//436 378//436
f 377//437 378//437 344//437
f 377//438 344//438 340//438
f 377//439 340//439 379//439
f 379//440 340//440 339//440
f 379//441 339//441 380//441
f 380//442 339//442 381//442
f 380//443 381//443 382//443
f 380//444 382//444 383//444
f 383//445 382//445 384//445
f 383//446 384//446 385//446
f 385//447 384//447 386//447
f 385//448 386//448 387//448
f 387//449 386//449 351//449
f 387//450 351//450 347//450
f 387//451 347//451 388//451
f 388//452 347//452 346//452
f 388//453 346//453 389//453
f 389//454 346//454 390//454
f 389//455 390//455 391//455
f 389//456 391//456 392//456
f 392//457 391//457 393//457
f 392//458 393//458 394//458
f 394//459 393//459 395//459
f 394//460 395//460 360//460
f 360//461 395//461 359//461
f 381//462 339//462 338//462
f 381//463 338//463 342//463
f 371//464 332//464 331//464
f 371//465 331//465 335//465
f 390//466 346//466 345//466
f 390//467 345//467 349//467
f 251//468 379//468 268//468
f 268//469 379//469 380//469
f 268//470 380//470 383//470
f 268//471 383//471 269//471
f 269//472 383//472 385//472
f 269//473 385//473 261//473
f 261//474 385//474 387//474
f 261//475 387//475 262//475
f 262//476 387//476 388//476
f 262//477 388//477 203//477
f 203//478 388//478 200//478
f 200//479 388//479 201//479
f 201//480 388//480 263//480
f 263//481 388//481 264//481
f 264//482 388//482 389//482
f 251//483 249//483 379//483
f 249//484 248//484 379//484
f 379//485 248//485 250//485
f 379//486 250//486 377//486
f 377//487 250//487 260//487
f 377//488 260//488 375//488
f 375//489 260//489 259//489
f 259//490 373//490 375//490
f 373//491 259//491 258//491
f 373//492 258//492 370//492
f 370//493 258//493 257//493
f 370//494 257//494 369//494
f 369//495 257//495 246//495
f 369//496 246//496 245//496
f 369//497 245//497 247//497
f 369//498 247//498 256//498
f 369//499 256//499 368//499
f 368//500 256//500 366//500
f 366//501 256//501 255//501
f 366//502 255//502 254//502
f 366//503 254//503 364//503
f 364//504 254//504 253//504
f 364//505 253//505 362//505
f 362//506 253//506 252//506
f 362//507 252//507 361//507
f 361//508 252//508 243//508
f 243//509 242//509 361//509
f 242//510 244//510 361//510
f 361//511 244//511 267//511
f 361//512 267//512 360//512
f 360//513 267//513 394//513
f 394//514 267//514 266//514
f 394//515 266//515 392//515
f 392//516 266//516 265//516
f 392//517 265//517 389//517
f 389//518 265//518 264//518
f 393//4 314//4 395//4
f 395//4 314//4 330//4
f 395//4 330//4 359//4
f 359//4 330//4 329//4
f 359//4 329//4 358//4
f 358//4 329//4 357//4
f 357//4 329//4 356//4
f 328//4 363//4 329//4
f 329//4 363//4 356//4
f 363//4 328//4 327//4
f 363//4 327//4 365//4
f 365//4 327//4 326//4
f 365//4 326//4 367//4
f 367//4 326//4 337//4
f 337//4 326//4 325//4
f 324//4 336//4 325//4
f 325//4 336//4 337//4
f 324//4 371//4 335//4
f 324//4 335//4 336//4
f 371//4 324//4 372//4
f 372//4 324//4 323//4
f 372//4 323//4 374//4
f 374//4 323//4 322//4
f 374//4 322//4 376//4
f 376//4 322//4 378//4
f 378//4 322//4 321//4
f 378//4 321//4 344//4
f 344//4 321//4 320//4
f 320//4 342//4 343//4
f 320//4 343//4 344//4
f 320//4 381//4 342//4
f 381//4 320//4 382//4
f 382//4 320//4 319//4
f 382//4 319//4 384//4
f 384//4 319//4 318//4
f 384//4 318//4 386//4
f 386//4 318//4 317//4
f 386//4 317//4 351//4
f 351//4 317//4 316//4
f 351//4 316//4 350//4
f 350//4 316//4 349//4
f 349//4 316//4 390//4
f 390//4 316//4 315//4
f 390//4 315//4 391//4
f 391//4 315//4 314//4
f 391//4 314//4 393//4
f 398//519 397//519 396//519
f 397//520 398//520 399//520
f 398//521 400//521 399//521
f 402//522 401//522 403//522
f 403//523 401//523 404//523
f 403//524 404//524 405//524
f 419//525 410//525 414//525
f 414//526 410//526 409//526
f 414//527 409//527 408//527
f 414//528 408//528 415//528
f 415//529 408//529 407//529
f 415//530 407//530 416//530
f 416//531 407//531 406//531
f 416//532 406//532 417//532
f 417//533 406//533 413//533
f 417//534 413//534 412//534
f 417//535 412//535 418//535
f 418//536 412//536 411//536
f 418//537 411//537 419//537
f 419//538 411//538 410//538
f 430//539 423//539 422//539
f 430//540 422//540 427//540
f 427//541 422//541 420//541
f 427//542 420//542 421//542
f 421//543 420//543 426//543
f 421//544 426//544 428//544
f 428//545 426//545 425//545
f 428//546 425//546 429//546
f 429//547 425//547 424//547
f 429//548 424//548 430//548
f 430//549 424//549 423//549
f 433//550 434//550 435//550
f 433//551 435//551 436//551
f 436//552 435//552 437//552
f 436//553 437//553 438//553
f 438//554 437//554 439//554
f 438//555 439//555 440//555
f 440//556 439//556 441//556
f 441//557 439//557 442//557
f 441//558 442//558 431//558
f 431//559 442//559 443//559
f 431//560 443//560 432//560
f 432//561 443//561 434//561
f 432//562 434//562 433//562
f 444//563 439//563 445//563
f 445//564 439//564 437//564
f 445//565 437//565 399//565
f 399//566 437//566 435//566
f 399//567 435//567 434//567
f 446//568 452//568 447//568
f 447//569 452//569 448//569
f 449//6 450//6 446//6
f 446//6 450//6 451//6
f 446//570 451//570 452//570
f 452//571 451//571 453//571
f 453//572 451//572 454//572
f 453//573 454//573 455//573
f 456//574 750//574 449//574
f 456//575 457//575 750//575
f 457//576 456//576 458//576
f 458//577 456//577 459//577
f 458//578 459//578 460//578
f 460//578 459//578 461//578
f 460//579 461//579 462//579
f 462//579 461//579 463//579
f 462//580 463//580 465//580
f 464//581 465//581 463//581
f 466//6 467//6 464//6
f 464//6 467//6 468//6
f 464//6 468//6 469//6
f 470//6 471//6 466//6
f 470//6 472//6 471//6
f 472//176 470//176 473//176
f 472//582 473//582 474//582
f 474//583 473//583 475//583
f 475//584 473//584 476//584
f 475//585 476//585 477//585
f 477//586 476//586 447//586
f 477//587 447//587 448//587
f 469//588 478//588 465//588
f 478//589 469//589 479//589
f 478//590 479//590 480//590
f 480//591 479//591 481//591
f 480//592 481//592 742//592
f 742//593 481//593 482//593
f 742//594 482//594 471//594
f 471//6 482//6 466//6
f 482//6 467//6 466//6
f 455//595 454//595 483//595
f 455//596 483//596 750//596
f 750//597 483//597 449//597
f 483//6 484//6 449//6
f 449//6 484//6 450//6
f 469//578 465//578 464//578
f 485//598 486//598 482//598
f 482//599 486//599 467//599
f 469//600 487//600 488//600
f 469//601 488//601 479//601
f 479//602 488//602 481//602
f 481//603 488//603 489//603
f 481//604 489//604 485//604
f 481//605 485//605 482//605
f 490//606 487//606 468//606
f 468//607 487//607 469//607
f 486//1 490//1 467//1
f 467//1 490//1 468//1
f 491//5 492//5 484//5
f 484//5 492//5 450//5
f 496//608 491//608 483//608
f 483//609 491//609 484//609
f 451//610 493//610 494//610
f 451//611 494//611 454//611
f 454//612 494//612 495//612
f 454//613 495//613 496//613
f 454//614 496//614 483//614
f 492//615 493//615 450//615
f 450//616 493//616 451//616
f 470//617 497//617 473//617
f 473//618 497//618 498//618
f 473//619 498//619 499//619
f 473//620 499//620 476//620
f 476//621 499//621 500//621
f 476//622 500//622 447//622
f 501//623 497//623 466//623
f 466//624 497//624 470//624
f 502//5 501//5 464//5
f 464//5 501//5 466//5
f 503//625 502//625 463//625
f 463//626 502//626 464//626
f 456//627 504//627 505//627
f 456//628 505//628 459//628
f 459//629 505//629 506//629
f 459//630 506//630 461//630
f 461//631 506//631 507//631
f 461//632 507//632 463//632
f 463//633 507//633 503//633
f 508//634 504//634 449//634
f 449//635 504//635 456//635
f 509//1 508//1 446//1
f 446//1 508//1 449//1
f 500//636 509//636 447//636
f 447//637 509//637 446//637
f 510//638 511//638 512//638
f 510//639 512//639 513//639
f 513//640 512//640 514//640
f 513//641 514//641 515//641
f 515//642 514//642 516//642
f 515//643 516//643 517//643
f 517//644 516//644 518//644
f 517//645 518//645 519//645
f 519//646 518//646 520//646
f 519//647 520//647 521//647
f 521//648 520//648 522//648
f 521//649 522//649 523//649
f 523//650 522//650 524//650
f 523//651 524//651 525//651
f 525//652 524//652 526//652
f 525//653 526//653 527//653
f 527//654 526//654 528//654
f 527//655 528//655 529//655
f 529//656 528//656 530//656
f 529//657 530//657 531//657
f 531//658 530//658 532//658
f 531//659 532//659 533//659
f 533//660 532//660 534//660
f 533//661 534//661 535//661
f 535//662 534//662 536//662
f 535//663 536//663 537//663
f 537//664 536//664 538//664
f 537//665 538//665 539//665
f 539//666 538//666 540//666
f 539//667 540//667 541//667
f 541//668 540//668 511//668
f 541//669 511//669 510//669
f 543//670 542//670 544//670
f 544//671 542//671 545//671
f 544//672 545//672 546//672
f 544//673 546//673 547//673
f 547//674 546//674 548//674
f 547//675 548//675 549//675
f 549//676 548//676 550//676
f 549//677 550//677 551//677
f 551//678 550//678 552//678
f 551//679 552//679 553//679
f 553//680 552//680 554//680
f 553//681 554//681 555//681
f 555//682 554//682 556//682
f 555//683 556//683 557//683
f 557//684 556//684 558//684
f 557//685 558//685 559//685
f 559//686 558//686 560//686
f 559//687 560//687 561//687
f 561//688 560//688 562//688
f 561//689 562//689 563//689
f 563//690 562//690 564//690
f 563//691 564//691 565//691
f 565//692 564//692 566//692
f 565//693 566//693 567//693
f 567//694 566//694 568//694
f 568//695 566//695 569//695
f 568//696 569//696 570//696
f 570//697 569//697 571//697
f 570//698 571//698 572//698
f 572//699 571//699 573//699
f 572//700 573//700 543//700
f 543//701 573//701 542//701
f 542//6 510//6 545//6
f 545//6 510//6 513//6
f 545//6 513//6 546//6
f 546//6 513//6 515//6
f 546//6 515//6 548//6
f 548//6 515//6 517//6
f 548//6 517//6 519//6
f 548//6 519//6 550//6
f 550//6 519//6 552//6
f 552//6 519//6 521//6
f 552//6 521//6 554//6
f 554//6 521//6 523//6
f 554//6 523//6 556//6
f 556//6 523//6 525//6
f 556//6 525//6 527//6
f 556//6 527//6 558//6
f 558//6 527//6 560//6
f 560//6 527//6 529//6
f 560//6 529//6 562//6
f 562//6 529//6 531//6
f 562//6 531//6 564//6
f 564//6 531//6 533//6
f 564//6 533//6 566//6
f 566//6 533//6 535//6
f 566//6 535//6 569//6
f 569//6 535//6 537//6
f 569//6 537//6 571//6
f 571//6 537//6 539//6
f 571//6 539//6 573//6
f 573//6 539//6 541//6
f 573//6 541//6 510//6
f 573//6 510//6 542//6
f 574//702 557//702 575//702
f 557//6 574//6 555//6
f 555//703 574//703 576//703
f 555//704 576//704 577//704
f 555//6 577//6 578//6
f 555//6 578//6 553//6
f 553//705 578//705 579//705
f 580//706 553//706 579//706
f 553//579 580//579 551//579
f 551//579 580//579 581//579
f 551//579 581//579 582//579
f 551//579 582//579 549//579
f 549//579 582//579 583//579
f 549//579 583//579 547//579
f 547//175 583//175 584//175
f 547//579 584//579 585//579
f 547//707 585//707 586//707
f 547//6 586//6 587//6
f 547//6 587//6 588//6
f 589//6 544//6 588//6
f 588//6 544//6 547//6
f 544//174 589//174 590//174
f 591//708 592//708 590//708
f 590//709 592//709 543//709
f 591//710 593//710 592//710
f 594//711 572//711 592//711
f 592//712 572//712 543//712
f 572//713 594//713 724//713
f 724//714 595//714 570//714
f 724//715 570//715 572//715
f 595//6 596//6 570//6
f 570//716 596//716 597//716
f 570//717 597//717 598//717
f 570//6 598//6 568//6
f 568//6 598//6 567//6
f 567//176 598//176 599//176
f 567//176 599//176 565//176
f 565//718 599//718 600//718
f 565//719 600//719 601//719
f 565//720 601//720 563//720
f 563//721 601//721 602//721
f 563//6 602//6 603//6
f 563//722 603//722 730//722
f 604//723 561//723 730//723
f 730//724 561//724 563//724
f 561//6 604//6 559//6
f 559//725 604//725 605//725
f 559//726 605//726 557//726
f 557//727 605//727 444//727
f 557//703 444//703 575//703
f 444//728 445//728 575//728
f 543//174 544//174 590//174
f 432//729 606//729 636//729
f 432//730 636//730 431//730
f 431//731 636//731 441//731
f 441//732 636//732 607//732
f 441//733 607//733 440//733
f 440//734 607//734 438//734
f 438//735 607//735 608//735
f 438//736 608//736 436//736
f 436//737 608//737 609//737
f 436//738 609//738 433//738
f 433//739 609//739 606//739
f 433//740 606//740 432//740
f 430//741 610//741 611//741
f 430//742 611//742 429//742
f 429//743 611//743 428//743
f 428//744 611//744 612//744
f 428//745 612//745 661//745
f 428//746 661//746 421//746
f 421//747 661//747 613//747
f 421//748 613//748 427//748
f 427//749 613//749 610//749
f 427//750 610//750 430//750
f 611//751 610//751 614//751
f 614//752 610//752 615//752
f 615//753 610//753 616//753
f 616//754 610//754 617//754
f 616//755 617//755 618//755
f 618//756 617//756 619//756
f 619//757 617//757 620//757
f 620//758 617//758 621//758
f 620//759 621//759 622//759
f 622//760 621//760 623//760
f 623//761 621//761 624//761
f 624//762 621//762 625//762
f 625//763 621//763 626//763
f 625//764 626//764 627//764
f 627//765 626//765 628//765
f 628//766 626//766 629//766
f 629//767 626//767 630//767
f 630//768 626//768 631//768
f 630//769 631//769 632//769
f 632//770 631//770 633//770
f 633//771 631//771 634//771
f 634//772 631//772 635//772
f 635//773 631//773 636//773
f 635//774 636//774 637//774
f 637//775 636//775 638//775
f 638//776 636//776 606//776
f 609//777 608//777 639//777
f 639//778 608//778 640//778
f 640//779 608//779 641//779
f 641//780 608//780 642//780
f 641//781 642//781 643//781
f 643//782 642//782 644//782
f 644//783 642//783 645//783
f 645//784 642//784 646//784
f 645//785 646//785 647//785
f 647//786 646//786 648//786
f 648//787 646//787 649//787
f 649//788 646//788 650//788
f 650//789 646//789 651//789
f 650//790 651//790 652//790
f 652//791 651//791 653//791
f 653//792 651//792 654//792
f 654//793 651//793 655//793
f 655//794 651//794 656//794
f 655//795 656//795 657//795
f 657//796 656//796 658//796
f 658//797 656//797 659//797
f 659//798 656//798 660//798
f 660//799 656//799 661//799
f 660//800 661//800 662//800
f 662//801 661//801 663//801
f 663//802 661//802 612//802
f 625//803 664//803 624//803
f 625//804 665//804 664//804
f 653//805 666//805 652//805
f 652//806 666//806 667//806
f 625//807 627//807 665//807
f 665//808 627//808 668//808
f 650//809 652//809 669//809
f 669//810 652//810 667//810
f 628//811 670//811 627//811
f 627//812 670//812 668//812
f 630//813 671//813 629//813
f 629//814 671//814 672//814
f 673//813 671//813 630//813
f 648//815 675//815 647//815
f 647//816 675//816 674//816
f 673//817 630//817 677//817
f 677//818 630//818 632//818
f 645//819 647//819 676//819
f 676//820 647//820 674//820
f 633//821 677//821 632//821
f 633//822 678//822 677//822
f 620//823 680//823 619//823
f 619//823 680//823 679//823
f 658//803 681//803 657//803
f 658//803 682//803 681//803
f 620//824 622//824 680//824
f 680//825 622//825 684//825
f 683//826 655//826 681//826
f 681//827 655//827 657//827
f 623//828 684//828 622//828
f 685//829 684//829 623//829
f 635//830 686//830 634//830
f 634//831 686//831 687//831
f 688//832 686//832 635//832
f 643//833 690//833 641//833
f 641//834 690//834 689//834
f 688//835 635//835 691//835
f 691//836 635//836 637//836
f 692//837 640//837 641//837
f 692//838 641//838 689//838
f 638//839 693//839 637//839
f 693//840 691//840 637//840
f 663//841 695//841 662//841
f 662//842 695//842 694//842
f 660//843 696//843 659//843
f 660//844 697//844 696//844
f 618//845 698//845 616//845
f 698//846 699//846 616//846
f 697//847 660//847 694//847
f 694//848 660//848 662//848
f 700//849 615//849 699//849
f 699//850 615//850 616//850
f 406//6 663//6 612//6
f 663//6 406//6 659//6
f 659//6 406//6 407//6
f 659//6 407//6 658//6
f 658//6 407//6 654//6
f 654//6 407//6 408//6
f 654//6 408//6 653//6
f 653//6 408//6 649//6
f 408//6 648//6 649//6
f 648//6 408//6 409//6
f 648//6 409//6 644//6
f 410//6 643//6 409//6
f 409//6 643//6 644//6
f 410//6 639//6 643//6
f 410//6 606//6 609//6
f 410//6 638//6 606//6
f 411//6 634//6 410//6
f 410//6 634//6 638//6
f 638//851 634//851 693//851
f 693//852 634//852 687//852
f 411//6 633//6 634//6
f 633//6 411//6 629//6
f 633//853 629//853 678//853
f 678//854 629//854 672//854
f 629//6 411//6 412//6
f 629//6 412//6 628//6
f 628//6 412//6 624//6
f 624//6 412//6 623//6
f 623//6 412//6 413//6
f 623//6 413//6 619//6
f 619//6 413//6 618//6
f 618//6 413//6 406//6
f 618//6 406//6 614//6
f 614//6 406//6 611//6
f 611//6 406//6 612//6
f 701//855 666//855 649//855
f 649//856 666//856 653//856
f 654//857 702//857 682//857
f 682//858 658//858 654//858
f 659//859 696//859 695//859
f 695//860 663//860 659//860
f 614//707 705//707 618//707
f 705//861 698//861 618//861
f 619//862 679//862 623//862
f 623//863 679//863 685//863
f 624//864 664//864 628//864
f 628//865 664//865 670//865
f 410//6 609//6 639//6
f 639//866 704//866 643//866
f 704//867 690//867 643//867
f 644//570 703//570 648//570
f 703//868 675//868 648//868
f 650//869 669//869 649//869
f 649//869 669//869 701//869
f 645//869 676//869 644//869
f 644//870 676//870 703//870
f 655//871 702//871 654//871
f 655//872 683//872 702//872
f 640//873 704//873 639//873
f 640//874 692//874 704//874
f 615//875 705//875 614//875
f 615//876 700//876 705//876
f 707//877 708//877 706//877
f 706//878 708//878 709//878
f 709//879 708//879 710//879
f 578//880 709//880 579//880
f 579//881 709//881 710//881
f 711//882 712//882 728//882
f 711//883 728//883 713//883
f 713//884 728//884 714//884
f 712//885 711//885 601//885
f 601//886 711//886 602//886
f 715//887 716//887 717//887
f 717//888 716//888 738//888
f 716//889 715//889 718//889
f 587//890 717//890 738//890
f 587//891 738//891 588//891
f 720//892 721//892 719//892
f 719//893 721//893 722//893
f 722//894 721//894 723//894
f 596//895 722//895 597//895
f 597//896 722//896 723//896
f 399//897 400//897 575//897
f 605//898 397//898 444//898
f 399//899 434//899 397//899
f 397//900 434//900 443//900
f 397//901 443//901 444//901
f 444//902 443//902 442//902
f 444//903 442//903 439//903
f 399//904 575//904 445//904
f 605//905 396//905 397//905
f 613//6 511//6 610//6
f 610//6 511//6 540//6
f 610//6 540//6 538//6
f 610//6 538//6 617//6
f 617//6 538//6 621//6
f 621//6 538//6 536//6
f 621//6 536//6 534//6
f 621//6 534//6 626//6
f 626//6 534//6 532//6
f 626//6 532//6 631//6
f 631//6 532//6 530//6
f 631//6 530//6 636//6
f 636//6 530//6 528//6
f 636//6 528//6 607//6
f 607//6 528//6 526//6
f 607//6 526//6 608//6
f 608//6 526//6 524//6
f 608//6 524//6 522//6
f 608//6 522//6 642//6
f 642//6 522//6 646//6
f 646//6 522//6 520//6
f 646//6 520//6 518//6
f 646//6 518//6 651//6
f 651//6 518//6 516//6
f 651//6 516//6 656//6
f 656//6 516//6 514//6
f 656//6 514//6 661//6
f 661//6 514//6 512//6
f 661//6 512//6 613//6
f 613//6 512//6 511//6
f 404//906 592//906 405//906
f 590//907 401//907 402//907
f 590//908 402//908 591//908
f 420//5 593//5 591//5
f 420//5 591//5 426//5
f 426//909 591//909 402//909
f 426//910 402//910 425//910
f 425//911 402//911 403//911
f 425//5 403//5 424//5
f 424//5 403//5 423//5
f 423//912 403//912 405//912
f 423//913 405//913 422//913
f 422//914 405//914 593//914
f 422//5 593//5 420//5
f 405//915 592//915 593//915
f 586//916 715//916 717//916
f 586//917 717//917 587//917
f 718//918 715//918 585//918
f 585//919 715//919 586//919
f 595//920 719//920 596//920
f 596//921 719//921 722//921
f 720//922 719//922 724//922
f 724//923 719//923 595//923
f 707//924 706//924 576//924
f 576//925 706//925 577//925
f 577//926 706//926 578//926
f 578//927 706//927 709//927
f 603//928 713//928 730//928
f 730//929 713//929 714//929
f 602//930 711//930 713//930
f 602//931 713//931 603//931
f 414//4 495//4 494//4
f 495//4 414//4 496//4
f 496//4 414//4 504//4
f 504//4 414//4 415//4
f 504//4 415//4 505//4
f 505//4 415//4 506//4
f 506//4 415//4 507//4
f 507//4 415//4 503//4
f 503//4 415//4 416//4
f 503//4 416//4 487//4
f 487//4 416//4 488//4
f 488//4 416//4 489//4
f 489//4 416//4 417//4
f 489//4 417//4 485//4
f 485//4 417//4 497//4
f 497//4 417//4 498//4
f 498//4 417//4 418//4
f 498//4 418//4 499//4
f 499//4 418//4 500//4
f 500//4 418//4 493//4
f 493//4 418//4 419//4
f 493//4 419//4 494//4
f 494//4 419//4 414//4
f 500//4 493//4 509//4
f 509//4 493//4 492//4
f 509//4 492//4 508//4
f 508//4 492//4 491//4
f 508//4 491//4 496//4
f 497//4 501//4 485//4
f 485//4 501//4 486//4
f 486//4 501//4 502//4
f 486//4 502//4 490//4
f 490//4 502//4 487//4
f 487//4 502//4 503//4
f 504//4 508//4 496//4
f 396//932 729//932 725//932
f 725//933 729//933 726//933
f 448//934 452//934 727//934
f 729//935 605//935 604//935
f 729//936 604//936 730//936
f 729//937 730//937 714//937
f 729//938 714//938 773//938
f 773//939 714//939 728//939
f 773//940 728//940 727//940
f 693//941 712//941 691//941
f 677//942 688//942 600//942
f 680//943 699//943 698//943
f 684//944 598//944 680//944
f 680//945 598//945 699//945
f 732//946 474//946 733//946
f 733//947 474//947 475//947
f 699//948 598//948 700//948
f 598//949 597//949 700//949
f 700//950 597//950 723//950
f 772//951 734//951 404//951
f 592//952 404//952 594//952
f 735//953 404//953 401//953
f 737//954 736//954 738//954
f 738//955 589//955 588//955
f 736//956 401//956 590//956
f 697//957 583//957 681//957
f 681//958 583//958 683//958
f 583//959 582//959 683//959
f 683//960 582//960 667//960
f 667//961 582//961 669//961
f 740//962 462//962 766//962
f 766//963 462//963 465//963
f 766//964 465//964 768//964
f 768//965 465//965 769//965
f 769//966 465//966 478//966
f 769//967 478//967 741//967
f 741//968 478//968 480//968
f 741//969 480//969 771//969
f 771//970 480//970 742//970
f 743//971 742//971 744//971
f 744//972 742//972 471//972
f 744//973 471//973 745//973
f 745//974 471//974 472//974
f 745//975 472//975 731//975
f 669//976 582//976 674//976
f 739//977 460//977 740//977
f 582//978 581//978 674//978
f 674//979 581//979 676//979
f 676//980 581//980 580//980
f 676//981 580//981 689//981
f 689//982 580//982 692//982
f 455//983 750//983 751//983
f 455//984 751//984 752//984
f 455//985 752//985 453//985
f 453//986 752//986 753//986
f 453//987 753//987 754//987
f 453//988 754//988 452//988
f 710//989 708//989 747//989
f 748//990 747//990 755//990
f 748//991 755//991 749//991
f 749//992 756//992 750//992
f 749//993 755//993 756//993
f 750//994 756//994 751//994
f 747//995 708//995 755//995
f 755//996 757//996 756//996
f 756//997 757//997 751//997
f 708//998 707//998 755//998
f 755//999 707//999 758//999
f 755//1000 758//1000 757//1000
f 751//1001 757//1001 752//1001
f 575//1002 400//1002 574//1002
f 574//1003 400//1003 759//1003
f 574//1004 759//1004 758//1004
f 574//1005 758//1005 576//1005
f 576//1006 758//1006 707//1006
f 400//1007 398//1007 760//1007
f 760//1008 398//1008 761//1008
f 761//1009 725//1009 753//1009
f 761//1010 398//1010 396//1010
f 747//1011 748//1011 704//1011
f 704//1012 748//1012 746//1012
f 704//1013 746//1013 690//1013
f 690//1014 746//1014 703//1014
f 749//1015 762//1015 748//1015
f 762//1016 457//1016 458//1016
f 762//1017 458//1017 746//1017
f 672//1018 763//1018 764//1018
f 672//1019 764//1019 678//1019
f 678//1020 764//1020 687//1020
f 678//1021 687//1021 686//1021
f 475//1022 477//1022 763//1022
f 763//1023 477//1023 764//1023
f 767//1024 768//1024 776//1024
f 737//1025 776//1025 769//1025
f 737//1026 769//1026 770//1026
f 735//1027 771//1027 772//1027
f 772//1028 771//1028 743//1028
f 772//1029 743//1029 775//1029
f 775//1030 743//1030 744//1030
f 775//1031 744//1031 745//1031
f 775//1032 745//1032 774//1032
f 702//1033 666//1033 740//1033
f 767//1034 766//1034 768//1034
f 776//1035 768//1035 769//1035
f 770//1036 769//1036 741//1036
f 770//1037 741//1037 771//1037
f 774//1038 745//1038 731//1038
f 731//1039 472//1039 732//1039
f 732//1040 472//1040 474//1040
f 740//1041 666//1041 739//1041
f 739//1042 666//1042 701//1042
f 670//1043 664//1043 763//1043
f 763//1044 664//1044 685//1044
f 664//1045 684//1045 685//1045
f 674//1046 675//1046 669//1046
f 669//1047 675//1047 701//1047
f 675//1048 703//1048 746//1048
f 763//1049 672//1049 670//1049
f 672//1050 671//1050 670//1050
f 671//1051 668//1051 670//1051
f 671//1052 673//1052 668//1052
f 697//1053 681//1053 696//1053
f 696//1054 681//1054 682//1054
f 766//1055 682//1055 740//1055
f 682//1056 702//1056 740//1056
f 702//1057 683//1057 666//1057
f 666//1058 683//1058 667//1058
f 732//1059 685//1059 679//1059
f 698//1060 679//1060 680//1060
f 689//1061 690//1061 703//1061
f 765//1062 693//1062 687//1062
f 765//1063 687//1063 764//1063
f 678//1064 686//1064 677//1064
f 686//1065 688//1065 677//1065
f 705//1066 732//1066 698//1066
f 698//1067 732//1067 679//1067
f 732//1068 705//1068 731//1068
f 696//1069 766//1069 695//1069
f 695//1070 766//1070 767//1070
f 766//1071 696//1071 682//1071
f 697//1072 694//1072 584//1072
f 694//1073 718//1073 584//1073
f 761//1074 753//1074 752//1074
f 771//1075 742//1075 743//1075
f 718//1076 585//1076 584//1076
f 396//1077 605//1077 729//1077
f 726//1078 729//1078 773//1078
f 726//1079 773//1079 754//1079
f 754//1080 727//1080 452//1080
f 725//1081 726//1081 753//1081
f 396//1082 725//1082 761//1082
f 726//1083 754//1083 753//1083
f 754//1084 773//1084 727//1084
f 728//1085 712//1085 693//1085
f 727//1086 728//1086 765//1086
f 765//1087 728//1087 693//1087
f 765//1088 448//1088 727//1088
f 691//1089 601//1089 600//1089
f 691//1090 600//1090 688//1090
f 712//1091 601//1091 691//1091
f 448//1092 765//1092 477//1092
f 477//1093 765//1093 764//1093
f 673//1094 677//1094 599//1094
f 599//1095 677//1095 600//1095
f 668//1096 673//1096 599//1096
f 668//1097 599//1097 665//1097
f 665//1098 599//1098 684//1098
f 763//1099 733//1099 475//1099
f 664//1100 665//1100 684//1100
f 763//1101 685//1101 733//1101
f 733//1102 685//1102 732//1102
f 599//1103 598//1103 684//1103
f 705//1104 700//1104 774//1104
f 774//1105 700//1105 723//1105
f 774//1106 723//1106 721//1106
f 775//1107 721//1107 720//1107
f 775//1108 720//1108 734//1108
f 775//1109 734//1109 772//1109
f 735//1110 772//1110 404//1110
f 776//1111 737//1111 738//1111
f 776//1112 738//1112 716//1112
f 776//1113 716//1113 767//1113
f 774//1114 721//1114 775//1114
f 770//1115 735//1115 401//1115
f 770//1116 401//1116 736//1116
f 770//1117 736//1117 737//1117
f 774//1118 731//1118 705//1118
f 734//1119 724//1119 594//1119
f 734//1120 594//1120 404//1120
f 720//1121 724//1121 734//1121
f 771//1122 735//1122 770//1122
f 736//1123 590//1123 589//1123
f 736//1124 589//1124 738//1124
f 716//1125 718//1125 767//1125
f 767//1126 718//1126 695//1126
f 694//1127 695//1127 718//1127
f 583//1128 697//1128 584//1128
f 740//1129 460//1129 462//1129
f 746//1130 739//1130 675//1130
f 675//1131 739//1131 701//1131
f 460//1132 739//1132 746//1132
f 458//1133 460//1133 746//1133
f 689//1134 703//1134 676//1134
f 692//1135 580//1135 579//1135
f 692//1136 579//1136 710//1136
f 692//1137 710//1137 704//1137
f 704//1138 710//1138 747//1138
f 457//1139 762//1139 749//1139
f 750//1140 457//1140 749//1140
f 758//1141 759//1141 757//1141
f 759//1142 400//1142 760//1142
f 757//1143 759//1143 760//1143
f 757//1144 760//1144 752//1144
f 761//1145 752//1145 760//1145
f 762//1146 746//1146 748//1146
